<?xml version="1.0" encoding="UTF-8"?>
<svg id="Layer_1" xmlns="http://www.w3.org/2000/svg" version="1.1" xmlns:xlink="http://www.w3.org/1999/xlink" viewBox="0 0 1539 1024.3">
  <!-- Generator: Adobe Illustrator 29.6.0, SVG Export Plug-In . SVG Version: 2.1.1 Build 207)  -->
  <defs>
    <style>
      .st0 {
        fill: #e3dbd5;
      }

      .st1 {
        fill: #8b8292;
      }

      .st2 {
        fill: #9895a2;
      }

      .st3 {
        fill: #44425b;
      }

      .st4 {
        fill: #7d8ba3;
      }

      .st5 {
        fill: #9ea5bd;
      }

      .st6 {
        fill: #445d7a;
      }

      .st7 {
        fill: #5f728d;
      }

      .st8 {
        fill: #81a1b4;
      }

      .st9 {
        fill: #686c7e;
      }

      .st10 {
        fill: #fff;
      }

      .st11 {
        fill: url(#linear-gradient1);
      }

      .st12 {
        fill: url(#radial-gradient);
      }

      .st13 {
        fill: #7b7f91;
      }

      .st14 {
        fill: #beb9ba;
      }

      .st15 {
        fill: url(#radial-gradient1);
      }

      .st16 {
        fill: #a3b4bf;
      }

      .st17 {
        fill: #e3e2d7;
      }

      .st18 {
        fill: #dbd9e3;
      }

      .st19 {
        fill: #6696ab;
      }

      .st20 {
        fill: #c8b0a6;
      }

      .st21 {
        fill: #787da3;
      }

      .st22 {
        fill: #aba0a4;
      }

      .st23 {
        fill: #fff1fb;
      }

      .st24 {
        fill: #adbcbe;
      }

      .st25 {
        fill: #d4e0e5;
      }

      .st26 {
        fill: #c0c8ce;
      }

      .st27 {
        fill: #615f6f;
      }

      .st28 {
        fill: #4e5163;
      }

      .st29 {
        fill: #75768f;
      }

      .st30 {
        fill: #918b8d;
      }

      .st31 {
        fill: #353b4e;
      }

      .st32 {
        fill: #5e7383;
      }

      .st33 {
        fill: #fae1e5;
      }

      .st34 {
        fill: #125375;
      }

      .st35 {
        fill: #e0cbc8;
      }

      .st36 {
        fill: #8b96a3;
      }

      .st37 {
        fill: #224462;
      }

      .st38 {
        fill: #e4f5f1;
      }

      .st39 {
        fill: url(#linear-gradient);
      }

      .st40 {
        fill: #a6908e;
      }

      .st41 {
        fill: #746a79;
      }

      .st42 {
        fill: #69849a;
      }

      .st43 {
        fill: #bed0cd;
      }

      .st44 {
        fill: #334b74;
      }
    </style>
    <linearGradient id="linear-gradient" x1="794.3" y1="1047.4" x2="749.8" y2="291.1" gradientTransform="translate(0 1026) scale(1 -1)" gradientUnits="userSpaceOnUse">
      <stop offset="0" stop-color="#000a1d"/>
      <stop offset=".5" stop-color="#001f3c"/>
      <stop offset=".7" stop-color="#04395d"/>
      <stop offset="1" stop-color="#6c6b6c"/>
    </linearGradient>
    <linearGradient id="linear-gradient1" x1="840" y1="289.8" x2="277.8" y2="-463" gradientTransform="translate(0 1026) scale(1 -1)" gradientUnits="userSpaceOnUse">
      <stop offset=".4" stop-color="#531615"/>
      <stop offset=".8" stop-color="#3b0a10"/>
    </linearGradient>
    <radialGradient id="radial-gradient" cx="1013.3" cy="207.9" fx="1013.3" fy="207.9" r="383.6" gradientTransform="translate(0 1026) scale(1 -1)" gradientUnits="userSpaceOnUse">
      <stop offset="0" stop-color="#71201a"/>
      <stop offset=".2" stop-color="#75231b"/>
      <stop offset=".4" stop-color="#812c1e"/>
      <stop offset=".7" stop-color="#953c23"/>
      <stop offset=".9" stop-color="#b1522b"/>
      <stop offset="1" stop-color="#c36130"/>
    </radialGradient>
    <radialGradient id="radial-gradient1" cx="509.3" cy="187.4" fx="509.3" fy="187.4" r="366.7" gradientTransform="translate(0 1026) scale(1 -1)" gradientUnits="userSpaceOnUse">
      <stop offset="0" stop-color="#71201a"/>
      <stop offset=".4" stop-color="#73221a"/>
      <stop offset=".6" stop-color="#7c281d"/>
      <stop offset=".8" stop-color="#8b3421"/>
      <stop offset="1" stop-color="#9f4526"/>
      <stop offset="1" stop-color="#a14627"/>
    </radialGradient>
  </defs>
  <g id="sky">
    <path class="st39" d="M1536.5,804l-116.7,1.6-113.2,1.6c-62.3-11.8-158.4-139.9-218.3-145.9-29.1-2.9-62.6.6-91.4,6.2-85-1.9-96.4,20.7-188.3,77.4-43.7,27-96.1,25.6-109.5,27-42.6,4.3-82.1-6.6-98.7-6.5-89.1-21-165.9-94.7-163.4-102.2,5.7-17.2,27.4,50.2-67.5,56.2-14.7.9-28.9,2-43.6,2.1-30.1.1-59.5-2.1-89.3-6.2-12.9-1.8-26.7-5.3-39.5-8.3-16.6-5.1-33.4-16.2-49.9-20.8-31.7-8.8-56.9-6-89.3-2.1-16,1.9-26,3-41.5,8.3-5.2,1.8-12,2.3-16.2,6.4.4-232.7,0-698.7,0-698.7h1538.9c0,0,.3,585.9,0,803.4l-2.4.4Z"/>
  </g>
  <g id="stars">
    <path class="st31" d="M1489.7,213.9c3-1.8,7.8,6.2,4.2,8.3-3,1.8-7.8-6.2-4.2-8.3Z"/>
    <path class="st6" d="M1341.9,235.6c3.3-.1,3,8,2.1,8.3-3.9,1.4-7.7-5.7-2.1-8.3Z"/>
    <path class="st7" d="M860.2,425.8c.8-.4,8.2,2.2,7.3,5.2-1.1,3-12.1-2.8-7.3-5.2Z"/>
    <path class="st31" d="M1294.4,184.8c3.6-.7,6.7,5.3,0,8.3-4.3-1.3-1.2-8.1,0-8.3Z"/>
    <path class="st28" d="M1244.5,74.7c5.2-1.9,7.3,4.2,4.2,6.2-1.8,1.2-7.3-3.3-4.2-6.2Z"/>
    <path class="st40" d="M916.3,105.8c5.4,1.8-6.9,10.9-5.2,3.1.3-1.3,4.2-.8,5.2-3.1Z"/>
    <path class="st8" d="M487.3,270c-2.5.4-6.3-.7-8.3,0-1.4-4.1,9.5-4.5,8.3,0Z"/>
    <path class="st10" d="M1288.2,161.9c4.9.6,1.3,9.3-2.1,4.1-1.4-2.1,1.8-4.2,2.1-4.1Z"/>
    <path class="st37" d="M322.1,402.9c1.6,0,1.6,10.4,0,10.4-1.8-1.7-1.5-10.4,0-10.4Z"/>
    <path class="st44" d="M336.7,442.4c1.6,0,1.6,10.4,0,10.4-1.8-1.7-1.5-10.4,0-10.4Z"/>
    <path class="st41" d="M824.9,234.6c3.2-1.1,4.6,3.1,2.1,4.1-3,1.3-4.6-3.2-2.1-4.1Z"/>
    <path class="st44" d="M297.2,382.1c4.3,0,7.2,5,2.1,4.1-.4,0-4.2-3.1-2.1-4.1Z"/>
    <path class="st41" d="M43.7,317.7c3.2-1.1,4.6,3.1,2.1,4.1-3,1.3-4.6-3.2-2.1-4.1Z"/>
    <path class="st6" d="M334.6,384.2c5.4-2.8,6,3.7,2.1,4.1-.2,0-4.2-3-2.1-4.1Z"/>
    <path class="st8" d="M401.1,390.4c3.1-1.1,4.6,3.1,2.1,4.1-3,1.3-4.6-3.2-2.1-4.1Z"/>
    <path class="st33" d="M535.1,336.4c-1.8,2.2-.3,1.9-4.2,2.1-1.6,0-2.3-.4-2.1-2.1,2.2.1,2.2-3.4,6.2,0h0Z"/>
    <path class="st36" d="M754.2,305.3c3.2-1.1,4.6,3.1,2.1,4.1-3,1.3-4.6-3.2-2.1-4.1Z"/>
    <path class="st5" d="M1140.7,188.9c5.3-2.8,6,3.7,2.1,4.1-.2,0-4.2-3-2.1-4.1Z"/>
    <path class="st13" d="M839.4,400.8c3.2-1.1,4.6,3.1,2.1,4.1-3,1.3-4.6-3.2-2.1-4.1Z"/>
    <path class="st34" d="M25,402.9c.2,0,4.2,3,2.1,4.1-5.4,2.8-6-3.7-2.1-4.1Z"/>
    <path class="st9" d="M608.8,402.9c3.2-1.1,4.6,3.1,2.1,4.1-3,1.3-4.6-3.2-2.1-4.1Z"/>
    <path class="st44" d="M704.4,411.2c1.3-.2,5,5.9,2.1,6.2-1.3.2-5-5.9-2.1-6.2Z"/>
    <path class="st30" d="M1425.3,299c3.2-1.1,4.6,3.1,2.1,4.1-3,1.3-4.6-3.2-2.1-4.1Z"/>
    <path class="st24" d="M829,299c3.2-1.1,4.6,3.1,2.1,4.1-3,1.3-4.6-3.2-2.1-4.1Z"/>
    <path class="st41" d="M1464.7,294.9c3.2-1.1,4.6,3.1,2.1,4.1-3,1.3-4.6-3.2-2.1-4.1Z"/>
    <path class="st13" d="M779.2,164c3.2-1.1,4.6,3.1,2.1,4.1-3,1.3-4.6-3.2-2.1-4.1Z"/>
    <path class="st1" d="M1146.9,153.6c3.2-1.1,4.6,3.1,2.1,4.1-3,1.3-4.6-3.2-2.1-4.1Z"/>
    <path class="st13" d="M878.9,153.6c3.2-1.1,4.6,3.1,2.1,4.1-3,1.3-4.6-3.2-2.1-4.1Z"/>
    <path class="st13" d="M874.7,141.1c3.2-1.1,4.6,3.1,2.1,4.1-3,1.3-4.6-3.2-2.1-4.1Z"/>
    <path class="st13" d="M35.4,452.8c3.2-1.1,4.6,3.1,2.1,4.1-3,1.3-4.6-3.2-2.1-4.1Z"/>
    <path class="st9" d="M1458.5,359.3c3.2-1.1,4.6,3.1,2.1,4.1-3,1.3-4.6-3.2-2.1-4.1Z"/>
    <path class="st2" d="M118.5,456.9c3.2-1.1,4.6,3.1,2.1,4.1-3,1.3-4.6-3.2-2.1-4.1Z"/>
    <path class="st17" d="M1227.9,110c.2,0,4.2,3,2.1,4.2-5.3,2.8-6-3.7-2.1-4.2Z"/>
    <path class="st1" d="M1358.8,139.1c3.2-1.1,4.6,3.1,2.1,4.1-3,1.3-4.6-3.2-2.1-4.1Z"/>
    <path class="st17" d="M808.2,139.1c1.3-.2,5,5.9,2.1,6.2-1.3.2-5-5.9-2.1-6.2Z"/>
    <path class="st16" d="M496.6,469.4c3.1-1.1,4.6,3.1,2.1,4.1-3,1.3-4.6-3.2-2.1-4.1Z"/>
    <path class="st13" d="M962,134.9c3.2-1.1,4.6,3.1,2.1,4.1-3,1.3-4.6-3.2-2.1-4.1Z"/>
    <path class="st42" d="M662.8,513c3.2-1.1,4.6,3.1,2.1,4.2-3,1.3-4.6-3.2-2.1-4.2Z"/>
    <path class="st4" d="M531.9,517.2c3.2-1.1,4.6,3.1,2.1,4.2-3,1.3-4.6-3.2-2.1-4.2Z"/>
    <path class="st36" d="M1431.5,560.8c3.2-1.1,4.6,3.1,2.1,4.2-3,1.3-4.6-3.2-2.1-4.2Z"/>
    <path class="st22" d="M831.1,124.5c3.2-1.1,4.6,3.1,2.1,4.2-3,1.3-4.6-3.2-2.1-4.2Z"/>
    <path class="st35" d="M851.9,118.3c2.6-1.8,2.7,8,0,6.2-1.6-1-1.8-5,0-6.2Z"/>
    <path class="st22" d="M1290.2,114.1c3.2-1.1,4.6,3.1,2.1,4.2-3,1.3-4.6-3.2-2.1-4.2Z"/>
    <path class="st41" d="M1373.3,105.8c3.2-1.1,4.6,3.1,2.1,4.2-3,1.3-4.6-3.2-2.1-4.2Z"/>
    <path class="st9" d="M818.6,101.7c3.2-1.1,4.6,3.1,2.1,4.2-3,1.3-4.6-3.2-2.1-4.2Z"/>
    <path class="st7" d="M870.6,93.4c3.2-1.1,4.6,3.1,2.1,4.2-3,1.3-4.6-3.2-2.1-4.2Z"/>
    <path class="st30" d="M1047.2,91.3c3.2-1.1,4.6,3.1,2.1,4.2-3,1.3-4.6-3.2-2.1-4.2Z"/>
    <path class="st13" d="M959.9,83c3.2-1.1,4.6,3.1,2.1,4.2-3,1.3-4.6-3.2-2.1-4.2Z"/>
    <path class="st32" d="M445.7,249.2c-.3.3-.3,8.6-4.1,2.1.4-.3.2-3.3,4.1-2.1Z"/>
    <path class="st26" d="M1313.1,247.1c3.2-1.1,4.6,3.1,2.1,4.1-3,1.3-4.6-3.2-2.1-4.1Z"/>
    <path class="st9" d="M918.3,76.7c3.2-1.1,4.6,3.1,2.1,4.2-3,1.3-4.6-3.2-2.1-4.2Z"/>
    <path class="st27" d="M995.2,68.4c3.2-1.1,4.6,3.1,2.1,4.2-3,1.3-4.6-3.2-2.1-4.2Z"/>
    <polygon class="st31" points="1504.2 371.7 1507.3 372.8 1504.2 375.9 1503.2 374.9 1504.2 371.7"/>
    <polygon class="st7" points="369.9 378 372 380 372 382.1 369.9 382.1 369.9 378"/>
    <polygon class="st29" points="664.9 315.6 667 317.7 667 319.8 664.9 319.8 664.9 315.6"/>
    <polygon class="st26" points="438.5 394.6 440.5 396.7 440.5 398.8 438.5 398.8 438.5 394.6"/>
    <polygon class="st25" points="748 309.4 750.1 311.5 750.1 313.6 748 313.6 748 309.4"/>
    <polygon class="st7" points="463.4 400.8 466.5 401.9 465.5 405 464.4 403.9 463.4 400.8"/>
    <polygon class="st44" points="241.1 427.8 244.2 428.9 241.1 432 240.1 431 241.1 427.8"/>
    <polygon class="st18" points="685.7 427.8 688.8 428.9 687.8 432 686.7 431 685.7 427.8"/>
    <polygon class="st16" points="1315.2 429.9 1316.2 433 1313.1 434.1 1312 433 1315.2 429.9"/>
    <polygon class="st7" points="340.8 438.2 343.9 439.3 340.8 442.4 339.8 441.3 340.8 438.2"/>
    <polygon class="st38" points="1281.9 361.4 1282.9 364.5 1279.8 365.5 1278.8 364.5 1281.9 361.4"/>
    <polygon class="st7" points="841.5 450.7 843.6 452.8 843.6 454.8 841.5 454.8 841.5 450.7"/>
    <polygon class="st21" points="733.5 461.1 734.5 464.2 731.4 465.2 730.3 464.2 733.5 461.1"/>
    <polygon class="st5" points="496.6 498.5 497.7 501.6 494.5 502.6 493.5 501.6 496.6 498.5"/>
    <polygon class="st36" points="1477.2 513 1480.3 514 1479.3 517.2 1478.2 516.1 1477.2 513"/>
    <polygon class="st8" points="415.6 579.5 418.7 580.5 415.6 583.7 414.6 582.6 415.6 579.5"/>
    <polygon class="st22" points="165.8 282.9 169 283.9 167.9 287 166.9 286 165.8 282.9"/>
    <polygon class="st20" points="164.8 170.6 165.8 173.7 162.7 174.7 161.7 173.7 164.8 170.6"/>
    <polygon class="st16" points="519.5 247.1 521.6 249.2 521.6 251.2 519.5 251.2 519.5 247.1"/>
    <polygon class="st38" points="1394.1 242.9 1397.2 244 1394.1 247.1 1393.1 246.1 1394.1 242.9"/>
    <polygon class="st14" points="1101.2 145.3 1104.3 146.3 1101.2 149.4 1100.1 148.4 1101.2 145.3"/>
    <polygon class="st10" points="1215.4 195.2 1218.6 196.2 1217.5 199.3 1216.5 198.3 1215.4 195.2"/>
    <polygon class="st22" points="799.9 141.1 802 143.2 802 145.3 799.9 145.3 799.9 141.1"/>
    <polygon class="st3" points="1319.3 124.5 1322.4 125.6 1319.3 128.7 1318.3 127.6 1319.3 124.5"/>
    <polygon class="st7" points="1261.1 124.5 1262.2 127.6 1259.1 128.7 1258 127.6 1261.1 124.5"/>
    <polygon class="st9" points="822.8 120.4 825.9 121.4 822.8 124.5 821.8 123.5 822.8 120.4"/>
    <path class="st42" d="M398,301.1c0,6.9-1,2.7-4.1,2.1,0-2.6,2.1-2.4,4.1-2.1Z"/>
    <polygon class="st22" points="1292.3 95.4 1294.4 97.5 1294.4 99.6 1292.3 99.6 1292.3 95.4"/>
    <polygon class="st14" points="802 95.4 805.1 96.5 804.1 99.6 803 98.6 802 95.4"/>
    <polygon class="st25" points="1026.4 155.7 1027.4 158.8 1024.3 159.8 1023.3 158.8 1026.4 155.7"/>
    <polygon class="st9" points="820.7 93.4 821.8 96.5 818.6 97.5 817.6 96.5 820.7 93.4"/>
    <polygon class="st28" points="878.9 74.7 879.9 77.8 876.8 78.8 875.8 77.8 878.9 74.7"/>
    <polygon class="st27" points="785.4 70.5 787.5 72.6 787.5 74.7 785.4 74.7 785.4 70.5"/>
    <polygon class="st26" points="1117.8 197.2 1118.8 200.4 1115.7 201.4 1114.7 200.4 1117.8 197.2"/>
    <polygon class="st30" points="1144.8 66.3 1147.9 67.4 1144.8 70.5 1143.8 69.5 1144.8 66.3"/>
    <polygon class="st17" points="772.9 141.1 776 142.2 775 145.3 774 144.3 772.9 141.1"/>
    <path class="st18" d="M422.9,315.6c-1.1.5.2,3.3-4.1,0,1.4-2.5,2-2,2.1-2.1l2.1,2.1h0Z"/>
    <path class="st18" d="M406.3,348.9c0-1.4,0-2.8,0-4.1.3.4,8.6-.6,0,4.1Z"/>
    <path class="st0" d="M506,247.1h2.1c-.4.4,1.3,5.1-3.1,4.1l1-4.1Z"/>
    <path class="st26" d="M510.1,265.8c-.4,0-3.6,6.4-4.1-2.1,1.8.3,4.2-1,4.1,2.1Z"/>
    <path class="st26" d="M526.8,261.6c-3,.5-2.9.5-4.2-2.1,2.4-1.7,6.7-2.9,4.2,2.1Z"/>
    <path class="st8" d="M634.8,261.6v2.1l-4.2-3.1c3.6-3.4,4,1.1,4.2,1Z"/>
    <path class="st25" d="M498.7,284.5c1.5-1.1,6.7.2,5.2,3.1-1.6,3.2-9.6.1-5.2-3.1Z"/>
    <path class="st19" d="M514.3,288.6l-2.1-2.1c4.2-7.6,10.5-3.9,2.1,2.1Z"/>
    <path class="st26" d="M613,270c2.6,3.8.8,8.6-2.1,4.1-1.5-2.3.8-2.5,2.1-4.1Z"/>
    <path class="st18" d="M542.3,249.2c2.6-1.8,2.7,8,0,6.2-1.6-1-1.8-5,0-6.2Z"/>
    <path class="st36" d="M526.8,328.1c-.2,1.5-.3,2.3-2.1,2.1.2-.4-6-5.9,2.1-2.1Z"/>
    <path class="st5" d="M528.8,321.9c0-.1,2.4.3,2.1-2.1,0,.4,5.5,7.4-2.1,2.1Z"/>
    <path class="st26" d="M514.3,288.6c-5,3.5-4.5,2.3-2.1-2.1l2.1,2.1Z"/>
    <path class="st26" d="M530.9,284.5l-2.1,2.1c-.2-6.3.1-.7,2.1-2.1Z"/>
    <polygon class="st19" points="523.6 276.2 525.7 278.3 525.7 280.3 523.6 280.3 523.6 276.2"/>
    <polygon class="st43" points="546.5 265.8 547.5 268.9 544.4 270 543.4 268.9 546.5 265.8"/>
    <polygon class="st18" points="619.2 263.7 622.3 264.8 619.2 267.9 618.2 266.8 619.2 263.7"/>
    <polygon class="st25" points="635.8 253.3 638.9 254.4 637.9 257.5 636.9 256.4 635.8 253.3"/>
    <polygon class="st23" points="606.7 242.9 609.8 244 606.7 247.1 605.7 246.1 606.7 242.9"/>
  </g>
  <g id="desert">
    <path class="st11" d="M0,796.8v-152.8c.8-48,90.1,8.3,256.8,57.3,95.7,28.1,182.4-42.5,182.4-42.5,0,0,88.2,118.9,255.6,109.2s189.3-108.4,189.3-108.4c0,0-14.6-60.3,64.3-45.7s125,32,155.7,45.2c0,0,52,10.4,198.2,142.5,27.5,4.8,116.9-27.9,116.9-27.9,0,0,89.4-44.9,119.8,29.9v220.8H0v-227.7Z"/>
    <path class="st12" d="M915.3,705.2c-8.1,6.4-13.1,16.1-13,26.5.2,25.5,29.1,22.4,34.5,43.9,5.5,22.2-151-25.7-137.5,10.5,25.1,67.2-113.3,12-112.5,29.1,1.6,32,251.1,71.5,198.2,69.6-23.7-.8-107.6-2.7-134.3-4.9-2.6-.2-5.3-.5-8.1-.8-89-9.7-156.9-35.6-190.9-27.5s-66.1,23.9-61.5,40.5c10.9,39.2,224.6,46.3,245.8,49.9,1.1.2,2.3.3,3.4.4l197,12.6c2.3.2,4.7,0,7-.3l593.1,5.7c.3-12.6-2.6-93.4-20.7-131.4-20.3-42.7-57.4-41.8-87.4-32.4-50.8,16-122.8,27.8-142.4,22.7,0,0-100.8-87.9-178-122.4s-140.8-15.9-140.8-15.9c-25.1,7.3-36,11.4-44.8,18.3l-7.5,5.9h0Z"/>
    <path class="st15" d="M13.2,962.4c-3.6-2.4,7.3-111.6-7.3-223.3-5.7-43.6,145.3,114.1,145.3,114.1,0,0,31.6-58.2,21.8-128.6-7.1-51.2,259.7,121.3,259.7-2.4s83.1,83.4,228.1,145.6,351.9,84.9,351.9,84.9l-999.6,9.7h0Z"/>
  </g>
</svg>