<svg width="1926" height="1084" viewBox="0 0 1926 1084" fill="none" xmlns="http://www.w3.org/2000/svg">
<g filter="url(#filter0_f_56_2019)">
<path d="M1845.43 810.99C1804.17 813.42 1758.06 829.6 1758.06 829.6C1758.06 829.6 1710.87 850.03 1648.71 851.98C1591.32 853.78 1412.62 716.27 1364.08 699.55C1315.54 682.83 1231.2 660.34 1195.27 666.11C1094.96 665.03 1081.47 759.95 1016.75 794.47C962.35 822.04 893.36 823.75 876.66 825.14C823.61 829.55 762.19 817.05 735.9 807.75C624.99 786.31 559.94 710.67 559.94 710.67C559.94 710.67 460.21 756.64 441.83 756.72C404.32 756.85 343.82 755.73 306.73 751.53C290.63 749.7 262.74 738.43 246.86 735.35C226.15 730.16 200.23 724.25 179.71 719.57C140.2 710.56 114.43 697.28 74.1 701.29C54.22 703.27 41.68 704.36 22.37 709.79C15.88 711.61 7.46001 712.11 2.14001 716.35C2.69001 478.49 2.14001 2.07 2.14001 2.07L1918.27 2C1918.27 2 1921.9 617.02 1921.47 839.3C1921.47 839.3 1886.68 808.56 1845.43 810.99Z" fill="url(#paint0_linear_56_2019)"/>
<path d="M2.29001 854.2L2.69001 701.3C3.68001 653.28 114.75 709.64 322.07 758.62C441.05 786.73 548.97 716.15 548.97 716.15C548.97 716.15 658.64 835.07 866.92 825.36C1075.2 815.65 1080.47 745.39 1102.36 716.96C1117.67 697.07 1147.89 669.35 1182.34 671.25C1281.86 676.75 1324.3 696.11 1371.84 715.12C1419.38 734.13 1413.91 728.89 1584.79 835.27C1613.33 853.04 1650.5 859.13 1685.43 851.85C1725.8 843.44 1767.92 831.02 1767.92 831.02C1767.92 831.02 1884.1 786.12 1921.9 860.95L1921.8 1081.78H2.69001L2.29001 854.18V854.2Z" fill="url(#paint1_linear_56_2019)"/>
<path d="M9.32 838.09L2 659.74C2 659.74 277.77 740.47 356.45 748.55C451.03 758.26 561.71 699.47 561.71 699.47C561.71 699.47 675.07 818.34 864.88 818.66C1027.57 818.93 1060.41 742.32 1083.75 712.01C1100.08 690.8 1139.26 656.19 1201.21 657.34C1242.6 658.11 1329.32 679.22 1392.82 706.48C1441.74 727.49 1450.45 739.06 1607.47 821.9C1639.64 838.87 1692.64 832.63 1729.89 824.87C1772.93 815.9 1799.32 798.98 1799.32 798.98C1799.32 798.98 1877.98 755.33 1923.29 835.11L1923.92 1081.64L6.83 1078.48L9.35 838.08L9.32 838.09Z" fill="url(#paint2_linear_56_2019)"/>
<path d="M1141.2 761.99C1131.11 768.4 1124.91 778.12 1124.98 788.46C1125.17 813.97 1161.22 810.82 1167.93 832.39C1174.82 854.55 980.08 806.73 996.88 842.91C1028.07 910.06 855.94 854.92 857.02 872.03C859.03 903.99 1169.27 943.49 1103.53 941.6C1074.03 940.75 969.68 938.86 936.52 936.71C933.26 936.5 929.92 936.24 926.45 935.94C815.77 926.23 731.26 900.34 688.99 908.43C646.72 916.52 606.78 932.31 612.52 948.88C626.1 988.12 891.83 995.21 918.28 998.75C919.7 998.94 921.13 999.07 922.56 999.15L1167.55 1011.76C1170.47 1011.91 1173.42 1011.82 1176.32 1011.48L1914.03 1017.19C1914.39 1004.63 1910.78 923.79 1888.35 885.79C1863.14 843.09 1816.95 844.01 1779.68 853.43C1716.54 869.39 1666.4 906.63 1602.6 876.08C1538.8 845.53 1477.17 788.17 1381.24 753.65C1285.31 719.13 1206.17 737.74 1206.17 737.74C1174.98 745.02 1161.42 749.15 1150.49 756.09L1141.2 761.99Z" fill="url(#paint3_radial_56_2019)"/>
<path opacity="0.12" d="M1162 759.02C1151.91 765.43 1145.71 775.15 1145.78 785.49C1145.97 811 1281.23 840.4 1287.93 861.97C1294.82 884.13 1052.28 822.15 1069.09 858.33C1040.41 928.71 936.7 866.7 937.78 883.81C939.79 915.77 1190.07 940.52 1124.32 938.63C1094.82 937.78 990.47 935.89 957.31 933.74C954.05 933.53 950.71 933.27 947.24 932.97C836.56 923.26 752.05 897.37 709.78 905.46C667.51 913.55 627.57 929.34 633.31 945.91C646.89 985.15 912.62 992.24 939.07 995.78C940.49 995.97 941.92 996.1 943.35 996.18L1188.34 1008.79C1191.26 1008.94 1194.21 1008.85 1197.11 1008.51L1900.68 1014.22C1901.04 1001.66 1909.03 938.8 1886.59 900.8C1861.38 858.1 1837.74 841.04 1800.47 850.46C1737.33 866.42 1665.65 916.8 1601.84 886.24C1538.03 855.68 1509.11 806.69 1413.18 772.17C1317.25 737.65 1238.11 740.62 1238.11 740.62C1206.92 747.9 1182.21 746.18 1171.28 753.12L1161.99 759.02H1162Z" fill="black"/>
<path d="M3 1018.65C2.25 1010.04 3.5 908.96 3.04 795.91L98.35 853.81C148.93 884.54 221.81 854.99 220.35 804.03C220.14 796.68 219.43 789.13 218.11 781.43C209.33 730.25 541.1 902.78 541.1 779C541.1 760.83 644.48 862.44 824.83 924.62C1005.18 986.8 1262.51 1009.56 1262.51 1009.56L3 1018.65Z" fill="url(#paint4_radial_56_2019)"/>
<path opacity="0.27" d="M23.13 1001.43C22.56 994.84 23.51 918.23 23.16 832.68L125.22 885.55C163.54 908.83 244.97 917.31 243.86 878.71C243.7 873.14 237.82 806.07 236.82 800.24C230.17 761.46 548.73 889.57 548.73 795.79C548.73 782.02 632.58 852.55 695.3 884.64C820.73 948.82 1080.68 1005.36 1080.68 1005.36L23.14 1001.44L23.13 1001.43Z" fill="url(#paint5_linear_56_2019)"/>
<path style="mix-blend-mode:screen" d="M1659.05 333.09C1668.41 333.09 1676 325.501 1676 316.14C1676 306.779 1668.41 299.19 1659.05 299.19C1649.69 299.19 1642.1 306.779 1642.1 316.14C1642.1 325.501 1649.69 333.09 1659.05 333.09Z" fill="url(#paint6_radial_56_2019)"/>
<path opacity="0.38" d="M1659.05 308.4L1660.15 315.04L1666.79 316.14L1660.15 317.23L1659.05 323.88L1657.96 317.23L1651.31 316.14L1657.96 315.04L1659.05 308.4Z" fill="white"/>
<path style="mix-blend-mode:screen" d="M660.71 259.32C670.072 259.32 677.66 251.731 677.66 242.37C677.66 233.009 670.072 225.42 660.71 225.42C651.349 225.42 643.76 233.009 643.76 242.37C643.76 251.731 651.349 259.32 660.71 259.32Z" fill="url(#paint7_radial_56_2019)"/>
<path opacity="0.38" d="M660.71 234.63L661.81 241.28L668.45 242.37L661.81 243.47L660.71 250.12L659.62 243.47L652.97 242.37L659.62 241.28L660.71 234.63Z" fill="white"/>
<path style="mix-blend-mode:screen" d="M721.19 259.32C730.552 259.32 738.14 251.731 738.14 242.37C738.14 233.009 730.552 225.42 721.19 225.42C711.829 225.42 704.24 233.009 704.24 242.37C704.24 251.731 711.829 259.32 721.19 259.32Z" fill="url(#paint8_radial_56_2019)"/>
<path opacity="0.38" d="M721.19 234.63L722.28 241.28L728.93 242.37L722.28 243.47L721.19 250.12L720.09 243.47L713.45 242.37L720.09 241.28L721.19 234.63Z" fill="white"/>
<path style="mix-blend-mode:screen" d="M707.44 190.14C723.887 190.14 737.22 176.807 737.22 160.36C737.22 143.913 723.887 130.58 707.44 130.58C690.993 130.58 677.66 143.913 677.66 160.36C677.66 176.807 690.993 190.14 707.44 190.14Z" fill="url(#paint9_radial_56_2019)"/>
<path opacity="0.38" d="M707.44 146.76L709.37 158.44L721.05 160.36L709.37 162.29L707.44 173.97L705.52 162.29L693.84 160.36L705.52 158.44L707.44 146.76Z" fill="white"/>
<path style="mix-blend-mode:screen" d="M615.618 323.702C623.57 322.857 629.331 315.724 628.486 307.772C627.64 299.82 620.508 294.059 612.556 294.905C604.603 295.75 598.842 302.882 599.688 310.835C600.534 318.787 607.666 324.548 615.618 323.702Z" fill="url(#paint10_radial_56_2019)"/>
<path opacity="0.38" d="M616.14 303.04L615.26 308.73L620.37 311.38L614.68 310.51L612.03 315.62L612.91 309.93L607.8 307.27L613.49 308.15L616.14 303.04Z" fill="white"/>
<path style="mix-blend-mode:screen" d="M1350.25 266.29C1356.07 266.29 1360.79 262.045 1360.79 256.81C1360.79 251.574 1356.07 247.33 1350.25 247.33C1344.43 247.33 1339.71 251.574 1339.71 256.81C1339.71 262.045 1344.43 266.29 1350.25 266.29Z" fill="url(#paint11_radial_56_2019)"/>
<path style="mix-blend-mode:screen" d="M1329.17 266.29C1334.99 266.29 1339.71 262.045 1339.71 256.81C1339.71 251.574 1334.99 247.33 1329.17 247.33C1323.35 247.33 1318.63 251.574 1318.63 256.81C1318.63 262.045 1323.35 266.29 1329.17 266.29Z" fill="url(#paint12_radial_56_2019)"/>
<path style="mix-blend-mode:screen" d="M1308.1 231.47C1313.92 231.47 1318.64 227.225 1318.64 221.99C1318.64 216.754 1313.92 212.51 1308.1 212.51C1302.28 212.51 1297.56 216.754 1297.56 221.99C1297.56 227.225 1302.28 231.47 1308.1 231.47Z" fill="url(#paint13_radial_56_2019)"/>
<path style="mix-blend-mode:screen" d="M1386.9 413.36C1392.72 413.36 1397.44 409.116 1397.44 403.88C1397.44 398.644 1392.72 394.4 1386.9 394.4C1381.08 394.4 1376.36 398.644 1376.36 403.88C1376.36 409.116 1381.08 413.36 1386.9 413.36Z" fill="url(#paint14_radial_56_2019)"/>
<path style="mix-blend-mode:screen" d="M1427.99 363.09C1429.24 364.34 1419.47 376.12 1406.19 389.4C1392.9 402.69 1381.12 412.45 1379.88 411.2C1378.64 409.95 1388.4 398.17 1401.68 384.89C1414.96 371.61 1426.75 361.84 1427.99 363.09Z" fill="url(#paint15_radial_56_2019)"/>
<path d="M1384.18 406.89C1383.66 406.37 1383.67 405.53 1384.2 405.02L1432.25 359.21L1385.93 406.88C1385.45 407.37 1384.66 407.38 1384.17 406.89H1384.18Z" fill="url(#paint16_linear_56_2019)"/>
<g opacity="0.44">
<path style="mix-blend-mode:screen" d="M1456.26 324.19C1485.11 324.19 1508.5 303.148 1508.5 277.19C1508.5 251.233 1485.11 230.19 1456.26 230.19C1427.41 230.19 1404.02 251.233 1404.02 277.19C1404.02 303.148 1427.41 324.19 1456.26 324.19Z" fill="url(#paint17_radial_56_2019)"/>
<path style="mix-blend-mode:screen" d="M1526.58 221.855C1571.67 176.765 1604.79 136.787 1600.57 132.561C1596.34 128.336 1556.37 161.463 1511.28 206.553C1466.19 251.643 1433.06 291.621 1437.28 295.846C1441.51 300.072 1481.49 266.945 1526.58 221.855Z" fill="url(#paint18_radial_56_2019)"/>
<path d="M1451.92 281.18C1450.16 279.42 1450.19 276.55 1452 274.83L1615.07 119.38L1457.89 281.13C1456.26 282.81 1453.57 282.83 1451.92 281.17V281.18Z" fill="url(#paint19_linear_56_2019)"/>
</g>
</g>
<defs>
<filter id="filter0_f_56_2019" x="0" y="0" width="1925.92" height="1083.78" filterUnits="userSpaceOnUse" color-interpolation-filters="sRGB">
<feFlood flood-opacity="0" result="BackgroundImageFix"/>
<feBlend mode="normal" in="SourceGraphic" in2="BackgroundImageFix" result="shape"/>
<feGaussianBlur stdDeviation="1" result="effect1_foregroundBlur_56_2019"/>
</filter>
<linearGradient id="paint0_linear_56_2019" x1="988.3" y1="-28.71" x2="940.3" y2="785.8" gradientUnits="userSpaceOnUse">
<stop stop-color="#000A1D"/>
<stop offset="0.54" stop-color="#001F3C"/>
<stop offset="0.7" stop-color="#04395D"/>
<stop offset="1" stop-color="#6C6B6C"/>
</linearGradient>
<linearGradient id="paint1_linear_56_2019" x1="1053.64" y1="765.89" x2="377.74" y2="1670.93" gradientUnits="userSpaceOnUse">
<stop offset="0.43" stop-color="#531615"/>
<stop offset="0.78" stop-color="#3B0A10"/>
</linearGradient>
<linearGradient id="paint2_linear_56_2019" x1="1055.82" y1="746.34" x2="370.84" y2="1663.54" gradientUnits="userSpaceOnUse">
<stop stop-color="#531615" stop-opacity="0.58"/>
<stop offset="1" stop-color="#3B0A10"/>
</linearGradient>
<radialGradient id="paint3_radial_56_2019" cx="0" cy="0" r="1" gradientUnits="userSpaceOnUse" gradientTransform="translate(1257.82 874.97) scale(475.614 383.56)">
<stop stop-color="#71201A"/>
<stop offset="0.22" stop-color="#75231B"/>
<stop offset="0.44" stop-color="#812C1E"/>
<stop offset="0.66" stop-color="#953C23"/>
<stop offset="0.88" stop-color="#B1522B"/>
<stop offset="1" stop-color="#C36130"/>
</radialGradient>
<radialGradient id="paint4_radial_56_2019" cx="0" cy="0" r="1" gradientUnits="userSpaceOnUse" gradientTransform="translate(629.338 895.16) scale(457.064 368.6)">
<stop stop-color="#71201A"/>
<stop offset="0.37" stop-color="#73221A"/>
<stop offset="0.61" stop-color="#7C281D"/>
<stop offset="0.81" stop-color="#8B3421"/>
<stop offset="0.99" stop-color="#9F4526"/>
<stop offset="1" stop-color="#A14627"/>
</radialGradient>
<linearGradient id="paint5_linear_56_2019" x1="22.94" y1="899.02" x2="1080.67" y2="899.02" gradientUnits="userSpaceOnUse">
<stop offset="0.13" stop-color="#7A271D" stop-opacity="0.61"/>
<stop offset="0.24" stop-color="#5E1E16" stop-opacity="0.7"/>
<stop offset="0.44" stop-color="#180705" stop-opacity="0.92"/>
<stop offset="0.5"/>
</linearGradient>
<radialGradient id="paint6_radial_56_2019" cx="0" cy="0" r="1" gradientUnits="userSpaceOnUse" gradientTransform="translate(1659.05 316.14) scale(16.95 16.95)">
<stop stop-color="#29ABE2"/>
<stop offset="0.06" stop-color="#2498C8"/>
<stop offset="0.19" stop-color="#1A7094"/>
<stop offset="0.33" stop-color="#124D66"/>
<stop offset="0.47" stop-color="#0B3141"/>
<stop offset="0.6" stop-color="#061B24"/>
<stop offset="0.74" stop-color="#020C10"/>
<stop offset="0.87" stop-color="#000304"/>
<stop offset="1"/>
</radialGradient>
<radialGradient id="paint7_radial_56_2019" cx="0" cy="0" r="1" gradientUnits="userSpaceOnUse" gradientTransform="translate(660.71 242.37) scale(0.499999)">
<stop stop-color="#29ABE2"/>
<stop offset="0.06" stop-color="#2498C8"/>
<stop offset="0.19" stop-color="#1A7094"/>
<stop offset="0.33" stop-color="#124D66"/>
<stop offset="0.47" stop-color="#0B3141"/>
<stop offset="0.6" stop-color="#061B24"/>
<stop offset="0.74" stop-color="#020C10"/>
<stop offset="0.87" stop-color="#000304"/>
<stop offset="1"/>
</radialGradient>
<radialGradient id="paint8_radial_56_2019" cx="0" cy="0" r="1" gradientUnits="userSpaceOnUse" gradientTransform="translate(721.19 242.37) scale(0.5)">
<stop stop-color="#29ABE2"/>
<stop offset="0.06" stop-color="#2498C8"/>
<stop offset="0.19" stop-color="#1A7094"/>
<stop offset="0.33" stop-color="#124D66"/>
<stop offset="0.47" stop-color="#0B3141"/>
<stop offset="0.6" stop-color="#061B24"/>
<stop offset="0.74" stop-color="#020C10"/>
<stop offset="0.87" stop-color="#000304"/>
<stop offset="1"/>
</radialGradient>
<radialGradient id="paint9_radial_56_2019" cx="0" cy="0" r="1" gradientUnits="userSpaceOnUse" gradientTransform="translate(707.44 160.36) scale(29.78)">
<stop stop-color="#29ABE2"/>
<stop offset="0.06" stop-color="#2498C8"/>
<stop offset="0.19" stop-color="#1A7094"/>
<stop offset="0.33" stop-color="#124D66"/>
<stop offset="0.47" stop-color="#0B3141"/>
<stop offset="0.6" stop-color="#061B24"/>
<stop offset="0.74" stop-color="#020C10"/>
<stop offset="0.87" stop-color="#000304"/>
<stop offset="1"/>
</radialGradient>
<radialGradient id="paint10_radial_56_2019" cx="0" cy="0" r="1" gradientUnits="userSpaceOnUse" gradientTransform="translate(614.114 309.286) rotate(18.08) scale(14.48 14.48)">
<stop stop-color="#29ABE2"/>
<stop offset="0.06" stop-color="#2498C8"/>
<stop offset="0.19" stop-color="#1A7094"/>
<stop offset="0.33" stop-color="#124D66"/>
<stop offset="0.47" stop-color="#0B3141"/>
<stop offset="0.6" stop-color="#061B24"/>
<stop offset="0.74" stop-color="#020C10"/>
<stop offset="0.87" stop-color="#000304"/>
<stop offset="1"/>
</radialGradient>
<radialGradient id="paint11_radial_56_2019" cx="0" cy="0" r="1" gradientUnits="userSpaceOnUse" gradientTransform="translate(1351.44 257.115) scale(10.541 9.462)">
<stop stop-color="#00FFFF"/>
<stop offset="0.03" stop-color="#00E7E7"/>
<stop offset="0.1" stop-color="#00B7B7"/>
<stop offset="0.17" stop-color="#008B8B"/>
<stop offset="0.25" stop-color="#006666"/>
<stop offset="0.33" stop-color="#004646"/>
<stop offset="0.42" stop-color="#002C2C"/>
<stop offset="0.51" stop-color="#001818"/>
<stop offset="0.63" stop-color="#000A0A"/>
<stop offset="0.76" stop-color="#000202"/>
<stop offset="1"/>
</radialGradient>
<radialGradient id="paint12_radial_56_2019" cx="0" cy="0" r="1" gradientUnits="userSpaceOnUse" gradientTransform="translate(1330.34 454.86) scale(0.634999 0.57)">
<stop stop-color="#00FFFF"/>
<stop offset="0.03" stop-color="#00E7E7"/>
<stop offset="0.1" stop-color="#00B7B7"/>
<stop offset="0.17" stop-color="#008B8B"/>
<stop offset="0.25" stop-color="#006666"/>
<stop offset="0.33" stop-color="#004646"/>
<stop offset="0.42" stop-color="#002C2C"/>
<stop offset="0.51" stop-color="#001818"/>
<stop offset="0.63" stop-color="#000A0A"/>
<stop offset="0.76" stop-color="#000202"/>
<stop offset="1"/>
</radialGradient>
<radialGradient id="paint13_radial_56_2019" cx="0" cy="0" r="1" gradientUnits="userSpaceOnUse" gradientTransform="translate(1309.25 222.345) scale(10.541 9.462)">
<stop stop-color="#00FFFF"/>
<stop offset="0.03" stop-color="#00E7E7"/>
<stop offset="0.1" stop-color="#00B7B7"/>
<stop offset="0.17" stop-color="#008B8B"/>
<stop offset="0.25" stop-color="#006666"/>
<stop offset="0.33" stop-color="#004646"/>
<stop offset="0.42" stop-color="#002C2C"/>
<stop offset="0.51" stop-color="#001818"/>
<stop offset="0.63" stop-color="#000A0A"/>
<stop offset="0.76" stop-color="#000202"/>
<stop offset="1"/>
</radialGradient>
<radialGradient id="paint14_radial_56_2019" cx="0" cy="0" r="1" gradientUnits="userSpaceOnUse" gradientTransform="translate(1388.12 403.947) scale(10.541 9.462)">
<stop stop-color="#00FFFF"/>
<stop offset="0.03" stop-color="#00E7E7"/>
<stop offset="0.1" stop-color="#00B7B7"/>
<stop offset="0.17" stop-color="#008B8B"/>
<stop offset="0.25" stop-color="#006666"/>
<stop offset="0.33" stop-color="#004646"/>
<stop offset="0.42" stop-color="#002C2C"/>
<stop offset="0.51" stop-color="#001818"/>
<stop offset="0.63" stop-color="#000A0A"/>
<stop offset="0.76" stop-color="#000202"/>
<stop offset="1"/>
</radialGradient>
<radialGradient id="paint15_radial_56_2019" cx="0" cy="0" r="1" gradientUnits="userSpaceOnUse" gradientTransform="translate(1379 375.152) rotate(-45) scale(33.9796 3.23)">
<stop stop-color="#00FFFF"/>
<stop offset="0.03" stop-color="#00E7E7"/>
<stop offset="0.1" stop-color="#00B7B7"/>
<stop offset="0.17" stop-color="#008B8B"/>
<stop offset="0.25" stop-color="#006666"/>
<stop offset="0.33" stop-color="#004646"/>
<stop offset="0.42" stop-color="#002C2C"/>
<stop offset="0.51" stop-color="#001818"/>
<stop offset="0.63" stop-color="#000A0A"/>
<stop offset="0.76" stop-color="#000202"/>
<stop offset="1"/>
</radialGradient>
<linearGradient id="paint16_linear_56_2019" x1="1383.8" y1="383.23" x2="1432.26" y2="383.23" gradientUnits="userSpaceOnUse">
<stop stop-color="white"/>
<stop offset="1" stop-color="white"/>
</linearGradient>
<radialGradient id="paint17_radial_56_2019" cx="0" cy="0" r="1" gradientUnits="userSpaceOnUse" gradientTransform="translate(1457.53 277.465) scale(52.2732 46.9224)">
<stop stop-color="#00FFFF"/>
<stop offset="0.03" stop-color="#00E7E7"/>
<stop offset="0.1" stop-color="#00B7B7"/>
<stop offset="0.17" stop-color="#008B8B"/>
<stop offset="0.25" stop-color="#006666"/>
<stop offset="0.33" stop-color="#004646"/>
<stop offset="0.42" stop-color="#002C2C"/>
<stop offset="0.51" stop-color="#001818"/>
<stop offset="0.63" stop-color="#000A0A"/>
<stop offset="0.76" stop-color="#000202"/>
<stop offset="1"/>
</radialGradient>
<radialGradient id="paint18_radial_56_2019" cx="0" cy="0" r="1" gradientUnits="userSpaceOnUse" gradientTransform="translate(1493.42 202.025) rotate(-45) scale(115.326 10.9625)">
<stop stop-color="#00FFFF"/>
<stop offset="0.03" stop-color="#00E7E7"/>
<stop offset="0.1" stop-color="#00B7B7"/>
<stop offset="0.17" stop-color="#008B8B"/>
<stop offset="0.25" stop-color="#006666"/>
<stop offset="0.33" stop-color="#004646"/>
<stop offset="0.42" stop-color="#002C2C"/>
<stop offset="0.51" stop-color="#001818"/>
<stop offset="0.63" stop-color="#000A0A"/>
<stop offset="0.76" stop-color="#000202"/>
<stop offset="1"/>
</radialGradient>
<linearGradient id="paint19_linear_56_2019" x1="1450.62" y1="200.89" x2="1615.07" y2="200.89" gradientUnits="userSpaceOnUse">
<stop stop-color="white"/>
<stop offset="1" stop-color="white"/>
</linearGradient>
</defs>
</svg>
