<?xml version="1.0" encoding="UTF-8"?>
<svg xmlns="http://www.w3.org/2000/svg" xmlns:xlink="http://www.w3.org/1999/xlink" viewBox="0 0 1920.39 1080">
  <defs>
    <style>
      .cls-1 {
        fill: url(#radial-gradient-9);
      }

      .cls-1, .cls-2, .cls-3, .cls-4, .cls-5, .cls-6, .cls-7, .cls-8, .cls-9, .cls-10, .cls-11, .cls-12, .cls-13 {
        mix-blend-mode: screen;
      }

      .cls-14 {
        mask: url(#mask-5);
      }

      .cls-15 {
        fill: url(#linear-gradient-2);
      }

      .cls-16 {
        fill: url(#linear-gradient-9);
      }

      .cls-16, .cls-17, .cls-18 {
        mix-blend-mode: multiply;
      }

      .cls-19 {
        mask: url(#mask-1);
      }

      .cls-20 {
        opacity: .12;
      }

      .cls-2 {
        fill: url(#linear-gradient-6);
        opacity: .47;
      }

      .cls-3 {
        fill: url(#radial-gradient-6);
      }

      .cls-21 {
        filter: url(#luminosity-noclip-5);
      }

      .cls-22 {
        mask: url(#mask);
      }

      .cls-4 {
        fill: url(#radial-gradient-5);
      }

      .cls-23 {
        fill: url(#radial-gradient);
      }

      .cls-24 {
        mask: url(#mask-2);
      }

      .cls-25 {
        filter: url(#luminosity-noclip-3);
      }

      .cls-5 {
        fill: url(#radial-gradient-14);
      }

      .cls-6 {
        fill: url(#radial-gradient-10);
      }

      .cls-26 {
        fill: url(#linear-gradient-3);
      }

      .cls-27 {
        fill: #fff;
        opacity: .38;
      }

      .cls-28 {
        isolation: isolate;
      }

      .cls-29 {
        fill: url(#linear-gradient-8);
      }

      .cls-7 {
        fill: url(#radial-gradient-3);
      }

      .cls-30 {
        fill: url(#radial-gradient-2);
      }

      .cls-31 {
        fill: url(#linear-gradient-10);
        opacity: .3;
      }

      .cls-8 {
        fill: url(#radial-gradient-11);
      }

      .cls-9 {
        fill: url(#radial-gradient-4);
      }

      .cls-17 {
        fill: url(#linear-gradient-5);
      }

      .cls-10 {
        fill: url(#radial-gradient-13);
      }

      .cls-11 {
        fill: url(#radial-gradient-7);
      }

      .cls-32 {
        mask: url(#mask-4);
      }

      .cls-33 {
        fill: url(#linear-gradient-4);
        opacity: .27;
      }

      .cls-34 {
        fill: url(#linear-gradient);
      }

      .cls-12 {
        fill: url(#radial-gradient-12);
      }

      .cls-13 {
        fill: url(#radial-gradient-8);
      }

      .cls-35 {
        mask: url(#mask-3);
      }

      .cls-36 {
        filter: url(#luminosity-noclip);
      }

      .cls-18 {
        fill: url(#linear-gradient-7);
      }
    </style>
    <linearGradient id="linear-gradient" x1="986.63" y1="4038.02" x2="938.66" y2="3223.81" gradientTransform="translate(0 4007.08) scale(1 -1)" gradientUnits="userSpaceOnUse">
      <stop offset="0" stop-color="#000a1d"/>
      <stop offset=".54" stop-color="#001f3c"/>
      <stop offset=".7" stop-color="#04395d"/>
      <stop offset="1" stop-color="#6c6b6c"/>
    </linearGradient>
    <linearGradient id="linear-gradient-2" x1="1051.64" y1="3243.1" x2="375.74" y2="2338.05" gradientTransform="translate(0 4007.08) scale(1 -1)" gradientUnits="userSpaceOnUse">
      <stop offset=".43" stop-color="#531615"/>
      <stop offset=".78" stop-color="#3b0a10"/>
    </linearGradient>
    <linearGradient id="linear-gradient-3" x1="1053.41" y1="3263.02" x2="368.39" y2="2345.76" gradientTransform="translate(0 4007.08) scale(1 -1)" gradientUnits="userSpaceOnUse">
      <stop offset="0" stop-color="#531615" stop-opacity=".58"/>
      <stop offset="1" stop-color="#3b0a10"/>
    </linearGradient>
    <radialGradient id="radial-gradient" cx="1393.3" cy="3134.02" fx="1393.3" fy="3134.02" r="383.56" gradientTransform="translate(-471.89 4007.08) scale(1.24 -1)" gradientUnits="userSpaceOnUse">
      <stop offset="0" stop-color="#71201a"/>
      <stop offset=".22" stop-color="#75231b"/>
      <stop offset=".44" stop-color="#812c1e"/>
      <stop offset=".66" stop-color="#953c23"/>
      <stop offset=".88" stop-color="#b1522b"/>
      <stop offset="1" stop-color="#c36130"/>
    </radialGradient>
    <radialGradient id="radial-gradient-2" cx="886.46" cy="3113.83" fx="886.46" fy="3113.83" r="368.6" gradientTransform="translate(-471.89 4007.08) scale(1.24 -1)" gradientUnits="userSpaceOnUse">
      <stop offset="0" stop-color="#71201a"/>
      <stop offset=".37" stop-color="#73221a"/>
      <stop offset=".61" stop-color="#7c281d"/>
      <stop offset=".81" stop-color="#8b3421"/>
      <stop offset=".99" stop-color="#9f4526"/>
      <stop offset="1" stop-color="#a14627"/>
    </radialGradient>
    <linearGradient id="linear-gradient-4" x1="20.94" y1="897.12" x2="1078.67" y2="897.12" gradientUnits="userSpaceOnUse">
      <stop offset=".13" stop-color="#7a271d" stop-opacity=".61"/>
      <stop offset=".24" stop-color="#5e1e16" stop-opacity=".7"/>
      <stop offset=".44" stop-color="#180705" stop-opacity=".92"/>
      <stop offset=".5" stop-color="#000"/>
    </linearGradient>
    <radialGradient id="radial-gradient-3" cx="1504.96" cy="362.78" fx="1504.96" fy="362.78" r="16.95" gradientUnits="userSpaceOnUse">
      <stop offset="0" stop-color="#29abe2"/>
      <stop offset=".06" stop-color="#2498c8"/>
      <stop offset=".19" stop-color="#1a7094"/>
      <stop offset=".33" stop-color="#124d66"/>
      <stop offset=".47" stop-color="#0b3141"/>
      <stop offset=".6" stop-color="#061b24"/>
      <stop offset=".74" stop-color="#020c10"/>
      <stop offset=".87" stop-color="#000304"/>
      <stop offset="1" stop-color="#000"/>
    </radialGradient>
    <filter id="luminosity-noclip" x="682.1" y="173.56" width="100.8" height="100.8" color-interpolation-filters="sRGB" filterUnits="userSpaceOnUse">
      <feFlood flood-color="#fff" result="bg"/>
      <feBlend in="SourceGraphic" in2="bg"/>
    </filter>
    <filter id="luminosity-noclip-2" x="682.1" y="-10194.54" width="100.8" height="32766" color-interpolation-filters="sRGB" filterUnits="userSpaceOnUse">
      <feFlood flood-color="#fff" result="bg"/>
      <feBlend in="SourceGraphic" in2="bg"/>
    </filter>
    <mask id="mask-1" x="682.1" y="-10194.54" width="100.8" height="32766" maskUnits="userSpaceOnUse"/>
    <linearGradient id="linear-gradient-5" x1="170.31" y1="774.62" x2="271.1" y2="774.62" gradientTransform="translate(1127.35 -478.12) rotate(45.26)" gradientUnits="userSpaceOnUse">
      <stop offset=".03" stop-color="#fff"/>
      <stop offset=".42" stop-color="#fafafa"/>
      <stop offset=".81" stop-color="#eee"/>
      <stop offset="1" stop-color="#e6e6e6"/>
    </linearGradient>
    <mask id="mask" x="682.1" y="173.56" width="100.8" height="100.8" maskUnits="userSpaceOnUse">
      <g class="cls-36">
        <g class="cls-19">
          <circle class="cls-17" cx="732.5" cy="223.95" r="50.4" transform="translate(-13.97 52.21) rotate(-4.04)"/>
        </g>
      </g>
    </mask>
    <linearGradient id="linear-gradient-6" x1="170.31" y1="774.62" x2="271.1" y2="774.62" gradientTransform="translate(1127.35 -478.12) rotate(45.26)" gradientUnits="userSpaceOnUse">
      <stop offset=".03" stop-color="#000"/>
      <stop offset=".16" stop-color="#000304"/>
      <stop offset=".29" stop-color="#020c10"/>
      <stop offset=".42" stop-color="#061c25"/>
      <stop offset=".55" stop-color="#0b3142"/>
      <stop offset=".68" stop-color="#124e67"/>
      <stop offset=".81" stop-color="#1b7094"/>
      <stop offset=".95" stop-color="#2498c9"/>
      <stop offset="1" stop-color="#29abe2"/>
    </linearGradient>
    <radialGradient id="radial-gradient-4" cx="506.62" cy="289.01" fx="506.62" fy="289.01" xlink:href="#radial-gradient-3"/>
    <radialGradient id="radial-gradient-5" cx="567.1" cy="289.01" fx="567.1" fy="289.01" xlink:href="#radial-gradient-3"/>
    <radialGradient id="radial-gradient-6" cx="553.35" cy="207" fx="553.35" fy="207" r="29.78" xlink:href="#radial-gradient-3"/>
    <radialGradient id="radial-gradient-7" cx="145.62" cy="659.56" fx="145.62" fy="659.56" r="14.48" gradientTransform="translate(596.98 -305.44) rotate(24.15)" xlink:href="#radial-gradient-3"/>
    <radialGradient id="radial-gradient-8" cx="1069.7" cy="51.3" fx="1069.7" fy="51.3" r="8.3" gradientTransform="translate(-161.29 244.88) scale(1.27 1.14)" gradientUnits="userSpaceOnUse">
      <stop offset="0" stop-color="aqua"/>
      <stop offset=".03" stop-color="#00e7e7"/>
      <stop offset=".1" stop-color="#00b7b7"/>
      <stop offset=".17" stop-color="#008b8b"/>
      <stop offset=".25" stop-color="#066"/>
      <stop offset=".33" stop-color="#004646"/>
      <stop offset=".42" stop-color="#002c2c"/>
      <stop offset=".51" stop-color="#001818"/>
      <stop offset=".63" stop-color="#000a0a"/>
      <stop offset=".76" stop-color="#000202"/>
      <stop offset="1" stop-color="#000"/>
    </radialGradient>
    <radialGradient id="radial-gradient-9" cx="1053.09" fx="1053.09" r="8.3" xlink:href="#radial-gradient-8"/>
    <radialGradient id="radial-gradient-10" cx="1036.49" cy="20.8" fx="1036.49" fy="20.8" xlink:href="#radial-gradient-8"/>
    <radialGradient id="radial-gradient-11" cx="1098.59" cy="180.1" fx="1098.59" fy="180.1" r="8.3" xlink:href="#radial-gradient-8"/>
    <radialGradient id="radial-gradient-12" cx="2933.34" cy="-11188.28" fx="2933.34" fy="-11188.28" r="12.92" gradientTransform="translate(-2260.27 7848.61) rotate(-45) scale(2.63 .25)" xlink:href="#radial-gradient-8"/>
    <filter id="luminosity-noclip-3" x="1229.71" y="405.85" width="48.46" height="48.04" color-interpolation-filters="sRGB" filterUnits="userSpaceOnUse">
      <feFlood flood-color="#fff" result="bg"/>
      <feBlend in="SourceGraphic" in2="bg"/>
    </filter>
    <filter id="luminosity-noclip-4" x="1229.71" y="-10194.54" width="48.46" height="32766" color-interpolation-filters="sRGB" filterUnits="userSpaceOnUse">
      <feFlood flood-color="#fff" result="bg"/>
      <feBlend in="SourceGraphic" in2="bg"/>
    </filter>
    <mask id="mask-3" x="1229.71" y="-10194.54" width="48.46" height="32766" maskUnits="userSpaceOnUse"/>
    <linearGradient id="linear-gradient-7" x1="1229.71" y1="429.87" x2="1278.17" y2="429.87" gradientUnits="userSpaceOnUse">
      <stop offset="0" stop-color="#fff"/>
      <stop offset="1" stop-color="#1a1a1a"/>
    </linearGradient>
    <mask id="mask-2" x="1229.71" y="405.85" width="48.46" height="48.04" maskUnits="userSpaceOnUse">
      <g class="cls-25">
        <g class="cls-35">
          <path class="cls-18" d="M1230.09,453.52c-.52-.52-.51-1.36.02-1.87l48.05-45.81-46.32,47.67c-.48.49-1.27.5-1.76.01h0Z"/>
        </g>
      </g>
    </mask>
    <linearGradient id="linear-gradient-8" x1="1229.71" y1="429.87" x2="1278.17" y2="429.87" gradientUnits="userSpaceOnUse">
      <stop offset="0" stop-color="#fff"/>
      <stop offset="1" stop-color="#fff"/>
    </linearGradient>
    <radialGradient id="radial-gradient-13" cx="1153.56" cy="69.15" fx="1153.56" fy="69.15" r="41.16" xlink:href="#radial-gradient-8"/>
    <radialGradient id="radial-gradient-14" cx="3010.76" cy="-11353.15" fx="3010.76" fy="-11353.15" r="43.85" gradientTransform="translate(-6563.74 3062.58) scale(2.63 .25)" xlink:href="#radial-gradient-8"/>
    <filter id="luminosity-noclip-5" x="1296.94" y="166.02" width="164.45" height="163.02" color-interpolation-filters="sRGB" filterUnits="userSpaceOnUse">
      <feFlood flood-color="#fff" result="bg"/>
      <feBlend in="SourceGraphic" in2="bg"/>
    </filter>
    <filter id="luminosity-noclip-6" x="1296.94" y="-10194.54" width="164.45" height="32766" color-interpolation-filters="sRGB" filterUnits="userSpaceOnUse">
      <feFlood flood-color="#fff" result="bg"/>
      <feBlend in="SourceGraphic" in2="bg"/>
    </filter>
    <mask id="mask-5" x="1296.94" y="-10194.54" width="164.45" height="32766" maskUnits="userSpaceOnUse"/>
    <linearGradient id="linear-gradient-9" x1="1296.94" y1="247.53" x2="1461.38" y2="247.53" xlink:href="#linear-gradient-7"/>
    <mask id="mask-4" x="1296.94" y="166.02" width="164.45" height="163.02" maskUnits="userSpaceOnUse">
      <g class="cls-21">
        <g class="cls-14">
          <path class="cls-16" d="M1298.24,327.82c-1.76-1.76-1.73-4.63.08-6.35l163.07-155.45-157.18,161.75c-1.63,1.68-4.32,1.7-5.97.04h0Z"/>
        </g>
      </g>
    </mask>
    <linearGradient id="linear-gradient-10" x1="1296.94" y1="247.53" x2="1461.38" y2="247.53" xlink:href="#linear-gradient-8"/>
  </defs>
  <g class="cls-28">
    <g id="Layer_2" data-name="Layer 2">
      <g id="ScrollPaper">
        <g id="DesertLandscape">
          <g id="sky">
            <path class="cls-34" d="M1818.09,805.25c-40.84,6.32-122.33,47.6-183.64,37.21-64.04-10.85-179.6-102.74-237.03-127.01-47.29-19.98-91.15-44.22-204.13-51.24-112.99-7.01-99.24,92.49-164.76,122.43-65.53,29.93-133.48,37.21-165.57,38.02-58.38-2.67-102.74-9.51-129.03-18.81-110.91-21.44-177.03-101.73-177.03-101.73,0,0-75.51,36.67-139.96,47.46-95.73,9.17-156.17-15.06-172.04-18.14-20.71-5.19-46.63-11.1-67.15-15.78-39.51-9.01-65.28-22.29-105.61-18.28-19.88,1.98-32.42,3.07-51.73,8.5-6.49,1.82-14.91,2.32-20.23,6.56.55-237.86,0-714.28,0-714.28l1920.17-.17s.23,615.02-.2,837.3c0,0-23.56-44.19-102.03-32.06Z"/>
          </g>
          <g id="desert">
            <path class="cls-15" d="M.29,852.3l.4-152.9c.99-48.02,112.06,8.34,319.38,57.32,118.98,28.11,235.72-43.43,235.72-43.43,0,0,106.69,126.2,314.97,116.49s207.71-86.29,229.6-114.72c15.31-19.89,45.53-47.61,79.98-45.71,99.52,5.5,141.96,24.86,189.5,43.87,47.54,19.01,42.07,13.77,212.95,120.15,28.54,17.77,65.71,23.86,100.64,16.58,40.37-8.41,82.49-20.83,82.49-20.83,0,0,116.18-44.9,153.98,29.93l-.1,220.83H.69l-.4-227.6Z"/>
            <path class="cls-26" d="M7.32,836.19L0,657.84s277.15,73.8,355.84,81.88c94.58,9.71,203.87-42.15,203.87-42.15,0,0,114.77,114.64,304.58,114.96,162.69.27,194.12-72.11,217.46-102.42,16.33-21.21,38.99-61,117.46-54.67,41.27,3.33,94.88,10.72,160.19,33.31,56.9,19.69,89.05,48.41,246.07,131.24,32.17,16.97,62.92,15.4,100.18,7.63,43.04-8.97,91.67-30.55,91.67-30.55,0,0,77.51-44.62,122.82,35.17l.2,247.75-1915.52-3.42,2.52-240.4Z"/>
            <path class="cls-23" d="M1139.2,760.09c-10.09,6.41-16.29,16.13-16.22,26.47.19,25.51,36.24,22.36,42.95,43.93,6.89,22.16-187.85-25.66-171.05,10.52,31.19,67.15-140.94,12.01-139.86,29.12,2.01,31.96,312.25,71.46,246.51,69.57-29.5-.85-133.85-2.74-167.01-4.89-3.26-.21-6.6-.47-10.07-.77-110.68-9.71-195.19-35.6-237.46-27.51-42.26,8.09-82.21,23.88-76.47,40.45,13.58,39.24,279.31,46.33,305.76,49.87,1.42.19,2.85.32,4.28.4l244.99,12.61c2.92.15,5.87.06,8.77-.28l737.71,5.71c.36-12.56-3.25-93.4-25.68-131.4-25.21-42.7-71.4-41.78-108.67-32.36-63.14,15.96-113.28,53.2-177.08,22.65-63.81-30.55-125.43-87.91-221.36-122.43-95.93-34.52-175.07-15.91-175.07-15.91-31.19,7.28-44.75,11.41-55.68,18.35l-9.29,5.9h0Z"/>
            <path class="cls-20" d="M1143.78,783.59c.19,25.51,135.45,54.91,142.15,76.48,6.89,22.16-258.22-44.85-269.55-11.95-28.68,70.38-81.68,16.68-80.6,33.79,2.01,31.96,252.29,56.71,186.54,54.82-29.5-.85-133.85-2.74-167.01-4.89-3.26-.21-6.6-.47-10.07-.77-110.68-9.71-195.19-35.6-237.46-27.51-42.26,8.09-82.21,23.88-76.47,40.45,13.58,39.24,279.31,46.33,305.76,49.87,1.42.19,2.85.32,4.28.4l244.99,12.61c2.92.15,5.87.06,8.77-.28l703.57,5.71c.36-12.56,8.35-75.42-14.09-113.42-25.21-42.7-48.85-59.76-86.12-50.34-63.14,15.96-134.82,66.34-198.63,35.78-63.81-30.55-102.96-61.93-195.16-106.87-91.64-44.68-163.42-35.6-163.42-35.6,0,0-99.78,9.71-97.5,41.72Z"/>
            <path class="cls-30" d="M1,1016.75c-.75-8.61.5-109.69.04-222.74l95.31,57.9c50.58,30.73,123.46,1.18,122-49.78-.21-7.35-.92-14.9-2.24-22.6-8.78-51.18,322.99,121.35,322.99-2.43,0-18.17,103.38,83.44,283.73,145.62,180.35,62.18,437.68,84.94,437.68,84.94L1,1016.75Z"/>
            <path class="cls-33" d="M21.13,999.52c-.57-6.59.38-83.2.03-168.75l102.06,52.87c38.32,23.28,119.75,31.76,118.64-6.84-.16-5.57-6.04-72.64-7.04-78.47-6.65-38.78,311.91,89.33,311.91-4.45,0-13.77,83.85,56.76,146.57,88.85,125.43,64.18,385.38,120.72,385.38,120.72l-1057.54-3.92Z"/>
          </g>
          <g id="Stars">
            <g>
              <circle class="cls-7" cx="1504.96" cy="362.78" r="16.95"/>
              <polygon class="cls-27" points="1504.96 355.03 1506.06 361.68 1512.7 362.78 1506.06 363.87 1504.96 370.52 1503.87 363.87 1497.22 362.78 1503.87 361.68 1504.96 355.03"/>
            </g>
            <g class="cls-22">
              <circle class="cls-2" cx="732.5" cy="223.95" r="50.4" transform="translate(-13.97 52.21) rotate(-4.04)"/>
            </g>
            <g>
              <circle class="cls-9" cx="506.62" cy="289.01" r="16.95"/>
              <polygon class="cls-27" points="506.62 281.27 507.72 287.92 514.36 289.01 507.72 290.11 506.62 296.76 505.53 290.11 498.88 289.01 505.53 287.92 506.62 281.27"/>
            </g>
            <g>
              <circle class="cls-4" cx="567.1" cy="289.01" r="16.95"/>
              <polygon class="cls-27" points="567.1 281.27 568.19 287.92 574.84 289.01 568.19 290.11 567.1 296.76 566 290.11 559.36 289.01 566 287.92 567.1 281.27"/>
            </g>
            <g>
              <circle class="cls-3" cx="553.35" cy="207" r="29.78"/>
              <polygon class="cls-27" points="553.35 193.4 555.28 205.08 566.96 207 555.28 208.93 553.35 220.61 551.43 208.93 539.75 207 551.43 205.08 553.35 193.4"/>
            </g>
            <g>
              <circle class="cls-11" cx="459.99" cy="355.97" r="14.48" transform="translate(-35.05 50.62) rotate(-6.07)"/>
              <polygon class="cls-27" points="462.05 349.68 461.17 355.37 466.28 358.02 460.59 357.15 457.94 362.25 458.82 356.57 453.71 353.91 459.4 354.79 462.05 349.68"/>
            </g>
            <ellipse class="cls-13" cx="1196.16" cy="303.45" rx="10.54" ry="9.48"/>
            <ellipse class="cls-1" cx="1175.08" cy="303.45" rx="10.54" ry="9.48"/>
            <ellipse class="cls-6" cx="1154.01" cy="268.63" rx="10.54" ry="9.48"/>
            <g>
              <ellipse class="cls-8" cx="1232.81" cy="450.52" rx="10.54" ry="9.48"/>
              <path class="cls-12" d="M1273.9,409.73c1.25,1.25-8.52,13.03-21.8,26.31-13.29,13.29-25.07,23.05-26.31,21.8s8.52-13.03,21.8-26.31c13.29-13.29,25.07-23.05,26.31-21.8Z"/>
              <g class="cls-24">
                <path class="cls-29" d="M1230.09,453.52c-.52-.52-.51-1.36.02-1.87l48.05-45.81-46.32,47.67c-.48.49-1.27.5-1.76.01h0Z"/>
              </g>
            </g>
            <ellipse class="cls-10" cx="1302.58" cy="323.83" rx="52.24" ry="47"/>
            <ellipse class="cls-5" cx="1365.24" cy="260.85" rx="115.46" ry="10.82" transform="translate(215.42 1041.77) rotate(-45)"/>
            <g class="cls-32">
              <path class="cls-31" d="M1298.24,327.82c-1.76-1.76-1.73-4.63.08-6.35l163.07-155.45-157.18,161.75c-1.63,1.68-4.32,1.7-5.97.04h0Z"/>
            </g>
          </g>
        </g>
      </g>
    </g>
  </g>
</svg>