<?xml version="1.0" encoding="UTF-8"?>
<svg xmlns="http://www.w3.org/2000/svg" version="1.1" xmlns:xlink="http://www.w3.org/1999/xlink" viewBox="0 0 195 120">
  <!-- Generator: Adobe Illustrator 29.6.0, SVG Export Plug-In . SVG Version: 2.1.1 Build 207)  -->
  <defs>
    <style>
      .st0 {
        fill: #d98d00;
        fill-opacity: .6;
      }

      .st1 {
        fill: url(#linear-gradient);
        mix-blend-mode: screen;
      }

      .st1, .st2 {
        isolation: isolate;
      }
    </style>
    <linearGradient id="linear-gradient" x1="139" y1="57.2" x2="54.3" y2="74.5" gradientTransform="translate(0 122) scale(1 -1)" gradientUnits="userSpaceOnUse">
      <stop offset="0" stop-color="#000"/>
      <stop offset=".2" stop-color="#000304"/>
      <stop offset=".3" stop-color="#020c10"/>
      <stop offset=".4" stop-color="#061c25"/>
      <stop offset=".6" stop-color="#0b3142"/>
      <stop offset=".7" stop-color="#124e67"/>
      <stop offset=".8" stop-color="#1b7094"/>
      <stop offset=".9" stop-color="#2498c9"/>
      <stop offset="1" stop-color="#29abe2"/>
    </linearGradient>
  </defs>
  <g class="st2">
    <g id="Layer_1">
      <path class="st1" d="M72.6,20.2c-19.9,13.2-25.2,40.1-12,59.9,13.2,19.9,40.1,25.2,59.9,12,19.9-13.2,25.2-40.1,12-59.9-13.2-19.9-40.1-25.2-59.9-12Z"/>
      <path class="st0" d="M78.9,36.7h4.3l-.2,1.1h-1.7l-3,15h1.7l-.2,1.2h-5.8l.2-1.2h1.7l2.6-13-7.6,12.3h-.9l-2.6-12.3-2.8,13h1.9l-.2,1.2h-5.2l.2-1.2h1.7l3-15h-1.7l.2-1.1h4.5l2.5,11.9,7.4-11.9ZM93.1,52c-2.3,1.5-4.4,2.3-6.2,2.3s-2.2-.4-2.9-1.2c-.7-.8-1.1-1.9-1.1-3.2,0-2.6.9-4.8,2.8-6.6,1.6-1.5,3.3-2.3,5-2.3s1.4.2,1.9.7c.5.5.8,1,.8,1.7,0,1.6-.7,2.9-2.2,3.9-1.4,1-3.4,1.6-5.8,1.7v.5c0,1,.2,1.7.8,2.3.5.6,1.2.9,2,.9,1.4,0,3.2-.8,5.2-2.3l-.3,1.6ZM85.5,48.1c1.8-.1,3.1-.6,4.1-1.3,1-.7,1.5-1.7,1.5-2.8s-.1-.9-.4-1.1c-.2-.2-.6-.4-1.1-.4-1,0-1.9.5-2.6,1.6-.8,1-1.3,2.4-1.6,4ZM96.5,54l2.3-11.6h-1.7l.2-1.2h4l-.2,1.2-.8,4.1c2.3-3.7,4.4-5.5,6.4-5.5s1.1.2,1.4.6c.4.4.5.9.5,1.6s0,.8-.3,1.7l-.3,1.6h0c1-1.6,2-3,3.2-4,1.2-1,2.2-1.5,3.2-1.5s1,.2,1.4.6c.4.4.5,1,.5,1.7s0,.9-.2,1.6l-1.6,7.9h1.7l-.2,1.2h-4.1l1.7-8.6c.1-.5.2-.9.2-1.2s0-.6-.2-.8c-.1-.2-.3-.2-.6-.2-.6,0-1.4.5-2.3,1.5-.9,1-2,2.4-3.2,4.4l-1,4.9h-2.3l1.7-8.6c.1-.5.2-.9.2-1.2,0-.7-.3-1-.8-1-1.2,0-3.1,2-5.6,5.9l-1,4.9h-2.3ZM123.2,54.3c-1.1,0-2.1-.4-2.8-1.2-.7-.8-1.1-1.8-1.1-3.1,0-2.4.8-4.5,2.4-6.3,1.6-1.8,3.5-2.7,5.6-2.7s2.1.4,2.8,1.2c.7.8,1.1,1.8,1.1,3.1,0,2.4-.8,4.5-2.4,6.3-1.6,1.8-3.5,2.7-5.6,2.7ZM124.1,53c1.2,0,2.3-.7,3.2-2.2.9-1.4,1.4-3.1,1.4-5.1s-.2-1.9-.6-2.5c-.4-.6-.9-.9-1.6-.9-1.2,0-2.3.7-3.2,2.2-.9,1.4-1.4,3.1-1.4,5s.2,1.9.6,2.5c.4.6.9.9,1.6.9ZM133.7,54l2.3-11.6h-1.7l.2-1.2h4l-.2,1.2-.8,4.1c2.2-3.7,4.4-5.5,6.5-5.5s.4,0,.6.1l-1,2.7c-.3-.2-.7-.3-1.1-.3-1.3,0-3.2,1.9-5.5,5.7l-.9,4.8h-2.3ZM143.7,58.7c.6-.4,1.3-1.1,2.2-2,.9-.9,1.6-1.6,2.1-2.2l.5-.7c0-4.5-.8-8.3-2.3-11.3h-1l.2-1.2h3.2c.6,1.4,1,3.1,1.4,4.9.4,1.8.6,3.4.6,4.8l2.7-3.2c1.6-2,2.4-3.5,2.4-4.7s-.3-1.2-.9-1.7h2.7c.3.4.4.8.4,1.2,0,1-.9,2.6-2.8,4.9l-5.6,7c-1.2,1.5-2.1,2.9-2.9,4.2h-2.9ZM75.6,81c-2.4,1-4.6,1.5-6.7,1.5s-3.4-.6-4.5-1.8c-1.1-1.2-1.6-2.8-1.6-4.9s.9-5.5,2.8-7.7c2.1-2.6,4.9-3.9,8.4-3.9s3,.2,4.7.6l-.7,3.3h-1.3l.2-1.8c-1.4-.6-2.5-.9-3.5-.9-2,0-3.9,1.1-5.5,3.2-1.6,2.1-2.4,4.6-2.4,7.2s.4,2.9,1.3,3.8c.9.9,2.1,1.4,3.6,1.4s3.5-.5,5.5-1.4l-.3,1.3ZM79.9,82l3.4-17.3h-1.7l.2-1.2h4l-1.4,6.9-.9,4.1h.1c1-1.7,2.1-3,3.3-4,1.2-1,2.3-1.5,3.3-1.5s1.1.2,1.5.6c.4.4.6.9.6,1.6s0,.9-.2,1.7l-1.6,8h1.7l-.2,1.2h-4l1.8-9.2c0-.2,0-.5,0-.7,0-.3,0-.6-.2-.8-.1-.2-.4-.3-.7-.3-.7,0-1.6.5-2.6,1.5-1,1-2.1,2.5-3.3,4.6l-1,4.8h-2.3ZM95.7,82l2.3-11.6h-1.7l.2-1.2h4l-.2,1.2-.8,4.1c2.3-3.7,4.4-5.5,6.5-5.5s.4,0,.6.1l-1,2.7c-.3-.2-.7-.3-1.1-.3-1.3,0-3.2,1.9-5.5,5.7l-.9,4.8h-2.3ZM111,82.3c-1.1,0-2.1-.4-2.8-1.2-.7-.8-1.1-1.8-1.1-3.1,0-2.4.8-4.5,2.4-6.3,1.6-1.8,3.5-2.7,5.6-2.7s2.1.4,2.8,1.2c.7.8,1.1,1.8,1.1,3.1,0,2.4-.8,4.5-2.4,6.3-1.6,1.8-3.5,2.7-5.6,2.7ZM111.9,81c1.2,0,2.3-.7,3.2-2.2s1.4-3.1,1.4-5.1-.2-1.9-.6-2.5c-.4-.6-.9-.9-1.6-.9-1.2,0-2.3.7-3.2,2.2-.9,1.4-1.4,3.1-1.4,5s.2,1.9.6,2.5c.4.6.9.9,1.6.9ZM121.6,82l2.3-11.6h-1.7l.2-1.2h4l-.2,1.2-.8,4.1c1-1.7,2.1-3,3.3-4,1.2-1,2.3-1.5,3.3-1.5s1.1.2,1.5.6c.4.4.6.9.6,1.6s0,.9-.2,1.7l-1.6,8h1.7l-.2,1.2h-4l1.8-9.2c0-.2,0-.5,0-.7,0-.3,0-.6-.2-.8-.1-.2-.4-.3-.7-.3-1.5,0-3.4,2-5.8,6.1l-.9,4.8h-2.3ZM137.3,82l2.3-11.6h-1.7l.2-1.2h4l-2.3,11.6h1.7l-.2,1.2h-4ZM140.3,67l.5-2.3h2.3l-.5,2.3h-2.3ZM153.4,80.9c-1.7.9-3.4,1.4-5,1.4s-2.2-.4-2.9-1.2c-.7-.8-1-1.9-1-3.3,0-2.3.8-4.4,2.4-6.2,1.6-1.8,3.5-2.7,5.6-2.7s2.1.2,3,.6l-.5,2.7h-1.3v-1.3c-.6-.4-1.3-.6-2.1-.6-1.2,0-2.3.7-3.2,2.2-.9,1.4-1.4,3.1-1.4,4.9s.2,1.8.7,2.4c.5.6,1.1.9,1.9.9,1.3,0,2.6-.4,4-1.3l-.3,1.5ZM157.2,82l3.4-17.3h-1.7l.2-1.2h4l-3.4,17.3h1.7l-.2,1.2h-4ZM174.5,80c-2.3,1.5-4.4,2.3-6.2,2.3s-2.2-.4-2.9-1.2c-.7-.8-1.1-1.9-1.1-3.2,0-2.6.9-4.8,2.8-6.6,1.6-1.5,3.3-2.3,5-2.3s1.4.2,1.9.7c.5.5.8,1,.8,1.7,0,1.6-.7,2.9-2.2,3.9-1.4,1-3.4,1.6-5.8,1.7v.5c0,1,.2,1.7.8,2.3.5.6,1.2.9,2,.9,1.4,0,3.2-.8,5.2-2.3l-.3,1.6ZM166.9,76.1c1.8-.1,3.1-.6,4.1-1.3,1-.7,1.5-1.7,1.5-2.8s-.1-.9-.4-1.1-.6-.4-1.1-.4c-1,0-1.9.5-2.6,1.6-.8,1-1.3,2.4-1.6,4ZM176.5,81.3l.5-2.4h1.5l-.3,1.3c.9.6,1.8.9,2.6.9s1.3-.2,1.7-.6c.5-.4.7-.8.7-1.4s-.3-1.2-1-1.8l-1.2-1.3c-1.4-1.5-2.1-2.7-2.1-3.7s.4-1.8,1.2-2.5c.8-.6,1.9-1,3.2-1s2.3.3,3.7.9l-.5,2.4h-1.4l.3-1.3c-.7-.5-1.5-.8-2.2-.8s-1.1.2-1.5.5c-.4.3-.6.8-.6,1.3s.4,1.2,1.1,2l1.2,1.2c1.3,1.3,2,2.5,2,3.6s-.4,1.9-1.3,2.6c-.8.6-2,1-3.4,1s-2.8-.3-4.3-1Z" shape-rendering="crispEdges"/>
    </g>
  </g>
</svg>