<svg width="195" height="120" viewBox="0 0 195 120" fill="none" xmlns="http://www.w3.org/2000/svg">
<path style="mix-blend-mode:screen" d="M35.9724 23.9653C16.1054 37.2011 10.7296 64.0361 23.9653 83.9031C37.201 103.77 64.0361 109.146 83.9031 95.9102C103.77 82.6745 109.146 55.8394 95.9102 35.9724C82.6745 16.1054 55.8394 10.7296 35.9724 23.9653Z" fill="url(#paint0_linear_61_2593)"/>
<g filter="url(#filter0_d_61_2593)">
<path d="M78.8854 36.6862H83.1393L82.905 37.8347H81.1706L78.1823 52.8698H79.9167L79.694 54.03H73.905L74.1393 52.8698H75.8737L78.4401 39.8268L70.8347 52.0847H69.9792L67.3542 39.8268L64.5886 52.8698H66.4753L66.2409 54.03H61.0378L61.2722 52.8698H63.0065L65.9948 37.8347H64.2604L64.4831 36.6862H68.9714L71.5143 48.5573L78.8854 36.6862ZM93.1003 52.0026C90.7643 53.5495 88.7057 54.3229 86.9245 54.3229C85.7214 54.3229 84.7682 53.9206 84.0651 53.1159C83.362 52.3112 83.0104 51.2292 83.0104 49.8698C83.0104 47.2839 83.9362 45.1003 85.7878 43.319C87.3815 41.78 89.0495 41.0104 90.7917 41.0104C91.5495 41.0104 92.1745 41.2409 92.6667 41.7018C93.1667 42.1628 93.4167 42.7448 93.4167 43.4479C93.4167 45.0182 92.6901 46.3112 91.237 47.3268C89.7917 48.3347 87.8542 48.8972 85.4245 49.0143L85.4128 49.4948C85.4128 50.4557 85.6745 51.237 86.1979 51.8386C86.7214 52.4323 87.3972 52.7292 88.2253 52.7292C89.6628 52.7292 91.3932 51.9597 93.4167 50.4206L93.1003 52.0026ZM85.5065 48.0534C87.2565 47.9128 88.6393 47.4753 89.655 46.7409C90.6706 46.0065 91.1784 45.0847 91.1784 43.9753C91.1784 43.4675 91.0573 43.0886 90.8151 42.8386C90.5729 42.5886 90.2097 42.4636 89.7253 42.4636C88.7487 42.4636 87.8659 42.9831 87.0768 44.0222C86.2956 45.0612 85.7722 46.405 85.5065 48.0534ZM96.4518 54.03L98.7487 42.4636H97.0143L97.2487 41.3034H101.292L101.057 42.4636L100.26 46.5182C102.573 42.8542 104.698 41.0222 106.635 41.0222C107.221 41.0222 107.69 41.2253 108.042 41.6315C108.401 42.03 108.581 42.5612 108.581 43.2253C108.581 43.4831 108.491 44.0378 108.311 44.8893L107.995 46.5182H108.065C109.026 44.8698 110.096 43.5417 111.276 42.5339C112.456 41.5182 113.526 41.0104 114.487 41.0104C115.057 41.0104 115.514 41.2253 115.858 41.655C116.21 42.0847 116.385 42.655 116.385 43.3659C116.385 43.7409 116.315 44.2761 116.174 44.9714L114.604 52.8698H116.339L116.116 54.03H112.061L113.772 45.4401C113.874 44.9089 113.924 44.5143 113.924 44.2565C113.924 43.9206 113.854 43.6706 113.714 43.5065C113.581 43.3425 113.374 43.2604 113.092 43.2604C112.467 43.2604 111.69 43.7526 110.76 44.737C109.839 45.7136 108.764 47.1862 107.538 49.155L106.565 54.03H104.257L105.956 45.4401C106.065 44.9089 106.12 44.5182 106.12 44.2682C106.12 43.5964 105.842 43.2604 105.288 43.2604C104.038 43.2604 102.186 45.2253 99.7331 49.155L98.7604 54.03H96.4518ZM123.171 54.3229C122.038 54.3229 121.116 53.9284 120.405 53.1393C119.702 52.3425 119.35 51.3034 119.35 50.0222C119.35 47.655 120.155 45.5651 121.764 43.7526C123.374 41.9323 125.229 41.0222 127.331 41.0222C128.495 41.0222 129.432 41.4167 130.143 42.2057C130.854 42.987 131.21 44.0222 131.21 45.3112C131.21 47.694 130.401 49.7917 128.784 51.6042C127.167 53.4167 125.296 54.3229 123.171 54.3229ZM124.085 53.0222C125.311 53.0222 126.382 52.3034 127.296 50.8659C128.21 49.4284 128.667 47.7448 128.667 45.8151C128.667 44.7448 128.464 43.8972 128.057 43.2722C127.659 42.6393 127.12 42.3229 126.44 42.3229C125.221 42.3229 124.155 43.0456 123.241 44.4909C122.335 45.9284 121.882 47.6081 121.882 49.53C121.882 50.5847 122.081 51.4323 122.479 52.0729C122.885 52.7057 123.421 53.0222 124.085 53.0222ZM133.741 54.03L136.038 42.4636H134.303L134.538 41.3034H138.581L138.346 42.4636L137.549 46.5182C139.799 42.8464 141.964 41.0104 144.042 41.0104C144.245 41.0104 144.436 41.0456 144.616 41.1159L143.62 43.8229C143.284 43.6276 142.917 43.53 142.518 43.53C141.19 43.53 139.35 45.4401 136.999 49.2604L136.049 54.03H133.741ZM143.749 58.6589C144.335 58.2448 145.085 57.5925 145.999 56.7018C146.921 55.8112 147.608 55.0729 148.061 54.487L148.6 53.7839C148.6 49.2526 147.827 45.4792 146.28 42.4636H145.272L145.507 41.3034H148.706C149.268 42.7331 149.733 44.3737 150.1 46.2253C150.475 48.069 150.671 49.6706 150.686 51.03L153.346 47.7839C154.956 45.8307 155.76 44.2526 155.76 43.0495C155.76 42.4167 155.46 41.8347 154.858 41.3034H157.577C157.835 41.7253 157.964 42.1315 157.964 42.5222C157.964 43.4753 157.034 45.1198 155.174 47.4557L149.596 54.4518C148.417 55.9284 147.448 57.3307 146.69 58.6589H143.749ZM75.5573 80.9518C73.1979 81.9597 70.9753 82.4636 68.8893 82.4636C66.9987 82.4636 65.5065 81.8737 64.4128 80.694C63.319 79.5065 62.7722 77.8893 62.7722 75.8425C62.7722 72.9518 63.7018 70.3776 65.5612 68.1198C67.6784 65.5339 70.4675 64.2409 73.9284 64.2409C75.3425 64.2409 76.9089 64.4362 78.6276 64.8268L77.9714 68.1315H76.6706L76.8815 66.3386C75.5222 65.7136 74.3503 65.4011 73.3659 65.4011C71.3425 65.4011 69.5143 66.4753 67.8815 68.6237C66.2487 70.7722 65.4323 73.1784 65.4323 75.8425C65.4323 77.444 65.8698 78.7097 66.7448 79.6393C67.6198 80.5612 68.819 81.0222 70.3425 81.0222C71.9909 81.0222 73.819 80.5651 75.8268 79.6511L75.5573 80.9518ZM79.9284 82.03L83.3737 64.6862H81.6393L81.8737 63.5261H85.9167L84.5339 70.4636L83.6315 74.5182H83.737C84.7292 72.8386 85.8229 71.5026 87.0182 70.5104C88.2136 69.5182 89.319 69.0222 90.3347 69.0222C90.9362 69.0222 91.4245 69.2292 91.7995 69.6432C92.1823 70.0495 92.3737 70.5768 92.3737 71.2253C92.3737 71.5768 92.2995 72.1276 92.1511 72.8776L90.5573 80.8698H92.3034L92.069 82.03H88.0261L89.8425 72.8542C89.8893 72.612 89.9128 72.3776 89.9128 72.1511C89.9128 71.8073 89.8386 71.5495 89.6901 71.3776C89.5417 71.2057 89.319 71.1198 89.0222 71.1198C88.28 71.1198 87.4245 71.6276 86.4557 72.6432C85.487 73.6589 84.4011 75.1862 83.1979 77.2253L82.237 82.03H79.9284ZM95.655 82.03L97.9518 70.4636H96.2175L96.4518 69.3034H100.495L100.26 70.4636L99.4636 74.5182C101.714 70.8464 103.878 69.0104 105.956 69.0104C106.159 69.0104 106.35 69.0456 106.53 69.1159L105.534 71.8229C105.198 71.6276 104.831 71.53 104.432 71.53C103.104 71.53 101.264 73.4401 98.9128 77.2604L97.9636 82.03H95.655ZM110.983 82.3229C109.85 82.3229 108.928 81.9284 108.217 81.1393C107.514 80.3425 107.163 79.3034 107.163 78.0222C107.163 75.655 107.967 73.5651 109.577 71.7526C111.186 69.9323 113.042 69.0222 115.143 69.0222C116.307 69.0222 117.245 69.4167 117.956 70.2057C118.667 70.987 119.022 72.0222 119.022 73.3112C119.022 75.694 118.214 77.7917 116.596 79.6042C114.979 81.4167 113.108 82.3229 110.983 82.3229ZM111.897 81.0222C113.124 81.0222 114.194 80.3034 115.108 78.8659C116.022 77.4284 116.479 75.7448 116.479 73.8151C116.479 72.7448 116.276 71.8972 115.87 71.2722C115.471 70.6393 114.932 70.3229 114.253 70.3229C113.034 70.3229 111.967 71.0456 111.053 72.4909C110.147 73.9284 109.694 75.6081 109.694 77.53C109.694 78.5847 109.893 79.4323 110.292 80.0729C110.698 80.7057 111.233 81.0222 111.897 81.0222ZM121.553 82.03L123.85 70.4636H122.116L122.35 69.3034H126.393L126.159 70.4636L125.35 74.5182C126.366 72.8229 127.467 71.4831 128.655 70.4987C129.842 69.5143 130.944 69.0222 131.96 69.0222C132.561 69.0222 133.049 69.2292 133.424 69.6432C133.807 70.0495 133.999 70.5768 133.999 71.2253C133.999 71.5768 133.924 72.1276 133.776 72.8776L132.182 80.8698H133.917L133.694 82.03H129.651L131.467 72.8542C131.514 72.6042 131.538 72.3698 131.538 72.1511C131.538 71.8073 131.464 71.5495 131.315 71.3776C131.167 71.2057 130.944 71.1198 130.647 71.1198C129.171 71.1198 127.225 73.155 124.811 77.2253L123.862 82.03H121.553ZM137.28 82.03L139.577 70.4636H137.842L138.077 69.3034H142.12L139.823 80.8698H141.557L141.323 82.03H137.28ZM140.268 66.9948L140.725 64.6862H143.034L142.577 66.9948H140.268ZM153.358 80.9167C151.655 81.8542 149.987 82.3229 148.354 82.3229C147.135 82.3229 146.182 81.9323 145.495 81.1511C144.807 80.362 144.464 79.2722 144.464 77.8815C144.464 75.5612 145.272 73.5065 146.889 71.7175C148.514 69.9206 150.378 69.0222 152.479 69.0222C153.534 69.0222 154.53 69.2136 155.467 69.5964L154.928 72.2682H153.628L153.757 70.9323C153.077 70.5261 152.35 70.3229 151.577 70.3229C150.382 70.3229 149.315 71.0456 148.378 72.4909C147.448 73.9284 146.983 75.5729 146.983 77.4245C146.983 78.4323 147.221 79.237 147.698 79.8386C148.182 80.4323 148.827 80.7292 149.632 80.7292C150.921 80.7292 152.264 80.28 153.663 79.3815L153.358 80.9167ZM157.178 82.03L160.624 64.6862H158.889L159.124 63.5261H163.167L159.721 80.8698H161.456L161.221 82.03H157.178ZM174.475 80.0026C172.139 81.5495 170.081 82.3229 168.299 82.3229C167.096 82.3229 166.143 81.9206 165.44 81.1159C164.737 80.3112 164.385 79.2292 164.385 77.8698C164.385 75.2839 165.311 73.1003 167.163 71.319C168.757 69.78 170.424 69.0104 172.167 69.0104C172.924 69.0104 173.549 69.2409 174.042 69.7018C174.542 70.1628 174.792 70.7448 174.792 71.4479C174.792 73.0182 174.065 74.3112 172.612 75.3268C171.167 76.3347 169.229 76.8972 166.799 77.0143L166.788 77.4948C166.788 78.4557 167.049 79.237 167.573 79.8386C168.096 80.4323 168.772 80.7292 169.6 80.7292C171.038 80.7292 172.768 79.9597 174.792 78.4206L174.475 80.0026ZM166.882 76.0534C168.632 75.9128 170.014 75.4753 171.03 74.7409C172.046 74.0065 172.553 73.0847 172.553 71.9753C172.553 71.4675 172.432 71.0886 172.19 70.8386C171.948 70.5886 171.585 70.4636 171.1 70.4636C170.124 70.4636 169.241 70.9831 168.452 72.0222C167.671 73.0612 167.147 74.405 166.882 76.0534ZM176.549 81.3034L177.018 78.9245H178.471L178.214 80.2253C179.104 80.8503 179.979 81.1628 180.839 81.1628C181.534 81.1628 182.112 80.9792 182.573 80.612C183.042 80.2448 183.276 79.7878 183.276 79.2409C183.276 78.7018 182.948 78.0886 182.292 77.4011L181.061 76.112C179.639 74.6198 178.928 73.4011 178.928 72.4557C178.928 71.4401 179.339 70.6159 180.159 69.9831C180.979 69.3425 182.034 69.0222 183.323 69.0222C184.401 69.0222 185.624 69.3112 186.991 69.8893L186.51 72.2682H185.069L185.327 70.9675C184.608 70.4362 183.866 70.1706 183.1 70.1706C182.53 70.1706 182.046 70.3464 181.647 70.6979C181.257 71.0417 181.061 71.4597 181.061 71.9518C181.061 72.53 181.444 73.2018 182.21 73.9675L183.428 75.1745C184.772 76.5026 185.444 77.7097 185.444 78.7956C185.444 79.8581 185.022 80.7136 184.178 81.362C183.335 82.0026 182.214 82.3229 180.815 82.3229C179.432 82.3229 178.01 81.9831 176.549 81.3034Z" fill="#D98D00" fill-opacity="0.6" shape-rendering="crispEdges"/>
</g>
<defs>
<filter id="filter0_d_61_2593" x="57.0378" y="36.6862" width="133.953" height="53.7773" filterUnits="userSpaceOnUse" color-interpolation-filters="sRGB">
<feFlood flood-opacity="0" result="BackgroundImageFix"/>
<feColorMatrix in="SourceAlpha" type="matrix" values="0 0 0 0 0 0 0 0 0 0 0 0 0 0 0 0 0 0 127 0" result="hardAlpha"/>
<feOffset dy="4"/>
<feGaussianBlur stdDeviation="2"/>
<feComposite in2="hardAlpha" operator="out"/>
<feColorMatrix type="matrix" values="0 0 0 0 0 0 0 0 0 0 0 0 0 0 0 0 0 0 0.25 0"/>
<feBlend mode="normal" in2="BackgroundImageFix" result="effect1_dropShadow_61_2593"/>
<feBlend mode="normal" in="SourceGraphic" in2="effect1_dropShadow_61_2593" result="shape"/>
</filter>
<linearGradient id="paint0_linear_61_2593" x1="102.354" y1="68.5932" x2="17.6753" y2="51.2299" gradientUnits="userSpaceOnUse">
<stop offset="0.03"/>
<stop offset="0.16" stop-color="#000304"/>
<stop offset="0.29" stop-color="#020C10"/>
<stop offset="0.42" stop-color="#061C25"/>
<stop offset="0.55" stop-color="#0B3142"/>
<stop offset="0.68" stop-color="#124E67"/>
<stop offset="0.81" stop-color="#1B7094"/>
<stop offset="0.95" stop-color="#2498C9"/>
<stop offset="1" stop-color="#29ABE2"/>
</linearGradient>
</defs>
</svg>
