<svg width="198" height="175" viewBox="0 0 198 175" fill="none" xmlns="http://www.w3.org/2000/svg">
<path d="M105.758 40.3245C106.299 40.3183 106.517 39.6294 106.082 39.3128C100.36 35.1792 79.8041 18.9115 93.3627 7.56572C109.005 -5.53036 146.353 35.7688 146.353 35.7688C146.353 35.7688 192.782 79.1659 192.782 87.638C192.782 96.1101 173.29 113.942 154.426 130.948C131.01 152.069 106.088 177.262 94.8802 167.71C81.0355 155.918 101.193 137.298 106.349 132.903C106.741 132.568 106.511 131.929 105.995 131.923L37.3495 130.445C37.3495 130.445 32.3054 136.491 21.7073 135.988C11.1092 135.485 4.54759 130.954 5.05137 122.892C5.55515 114.829 10.6054 100.734 11.1092 88.1407C11.613 75.5536 -0.496461 53.3896 8.08029 43.8251C16.657 34.2544 33.8168 41.3052 33.8168 41.3052L105.758 40.3245Z" fill="url(#paint0_radial_274_106)" stroke="#231F20" stroke-width="10" stroke-miterlimit="10"/>
<path d="M31.8451 116.362C31.8451 116.362 37.5982 99.0086 37.5982 85.0932C37.5982 71.1779 29.7492 60.3535 29.7492 60.3535C29.7492 60.3535 37.959 42.3107 22.69 42.3107C1.76743 42.3107 10.3069 62.7306 10.3069 62.7306C10.3069 62.7306 15.5188 73.102 15.5188 87.9297C15.5188 100.244 13.6965 103.639 9.85284 115.934C3.74525 135.498 27.9579 134.399 31.9944 129.365C34.8678 125.784 31.8514 116.362 31.8514 116.362H31.8451Z" fill="black" fill-opacity="0.2"/>
<defs>
<radialGradient id="paint0_radial_274_106" cx="0" cy="0" r="1" gradientUnits="userSpaceOnUse" gradientTransform="translate(98.891 87.3972) rotate(90) scale(82.3972 93.891)">
<stop offset="0.0336538" stop-color="#E0A433"/>
<stop offset="1" stop-color="#7A591C"/>
</radialGradient>
</defs>
</svg>
