<?xml version="1.0" encoding="UTF-8"?>
<svg id="Layer_1" xmlns="http://www.w3.org/2000/svg" version="1.1" xmlns:xlink="http://www.w3.org/1999/xlink" viewBox="0 0 198 175">
  <!-- Generator: Adobe Illustrator 29.6.0, SVG Export Plug-In . SVG Version: 2.1.1 Build 207)  -->
  <defs>
    <style>
      .st0 {
        fill: url(#radial-gradient);
        stroke: #231f20;
        stroke-miterlimit: 10;
        stroke-width: 10px;
      }

      .st1 {
        fill-opacity: .2;
      }
    </style>
    <radialGradient id="radial-gradient" cx="-854.5" cy="637.2" fx="-854.5" fy="637.2" r="1" gradientTransform="translate(59922.4 -70322.2) rotate(-90) scale(82.4 -93.9)" gradientUnits="userSpaceOnUse">
      <stop offset="0" stop-color="#e0a433"/>
      <stop offset="1" stop-color="#7a591c"/>
    </radialGradient>
  </defs>
  <path class="st0" d="M92,134.5c-.5,0-.8.7-.3,1,5.7,4.1,26.3,20.4,12.7,31.7-15.6,13.1-53-28.2-53-28.2,0,0-46.4-43.4-46.4-51.9s19.5-26.3,38.4-43.3C66.8,22.7,91.7-2.5,102.9,7.1c13.8,11.8-6.3,30.4-11.5,34.8-.4.3-.2,1,.4,1l68.6,1.5s5-6,15.6-5.5c10.6.5,17.2,5,16.7,13.1-.5,8.1-5.6,22.2-6.1,34.8-.5,12.6,11.6,34.8,3,44.3-8.6,9.6-25.7,2.5-25.7,2.5l-71.9,1Z"/>
  <path class="st1" d="M165.9,58.4s-5.8,17.4-5.8,31.3,7.8,24.7,7.8,24.7c0,0-8.2,18,7.1,18s12.4-20.4,12.4-20.4c0,0-5.2-10.4-5.2-25.2s1.8-15.7,5.7-28c6.1-19.6-18.1-18.5-22.1-13.4-2.9,3.6.1,13,.1,13h0Z"/>
</svg>